<svg width="26" height="25" viewBox="0 0 26 25" fill="none" xmlns="http://www.w3.org/2000/svg">
<path d="M8.43982 8.23343L8.42638 7.26352C8.39518 5.01374 10.1744 2.77886 12.4212 2.53768C15.0974 2.24055 17.3864 4.31901 17.4229 6.94876L17.442 8.32863" stroke="#202020" stroke-width="1.5" stroke-miterlimit="10" stroke-linecap="round" stroke-linejoin="round"/>
<path d="M10.1377 22.542L16.1371 22.4588C20.1567 22.403 20.8544 20.7832 21.0372 18.8205L21.7039 12.8107C21.94 10.3672 21.2125 8.38706 16.9429 8.44626L8.94371 8.55718C4.67412 8.61638 4.00177 10.6159 4.30558 13.0519L5.13869 19.0409C5.37585 20.9978 6.1181 22.5977 10.1377 22.542Z" stroke="#202020" stroke-width="1.5" stroke-miterlimit="10" stroke-linecap="round" stroke-linejoin="round"/>
<path d="M16.4936 12.4521L16.5026 12.452" stroke="#202020" stroke-width="2" stroke-linecap="round" stroke-linejoin="round"/>
<path d="M9.49358 12.5497L9.50256 12.5496" stroke="#202020" stroke-width="2" stroke-linecap="round" stroke-linejoin="round"/>
</svg>
