<svg width="40" height="40" viewBox="0 0 40 40" fill="none" xmlns="http://www.w3.org/2000/svg">
<path opacity="0.4" d="M9.56627 26.6673C9.7496 25.8507 9.41627 24.684 8.83294 24.1007L4.78294 20.0506C3.51627 18.784 3.01627 17.434 3.38294 16.2673C3.76627 15.1007 4.9496 14.3007 6.71627 14.0007L11.9163 13.134C12.6663 13.0007 13.5829 12.334 13.9329 11.6507L16.7996 5.90065C17.6329 4.25065 18.7663 3.33398 19.9996 3.33398C21.2329 3.33398 22.3663 4.25065 23.1996 5.90065L26.0663 11.6507C26.2829 12.084 26.7329 12.5007 27.2163 12.784L9.26627 30.734C9.03294 30.9673 8.63294 30.7507 8.6996 30.4173L9.56627 26.6673Z" fill="#DFBC0B"/>
<path d="M31.167 24.0992C30.567 24.6992 30.2337 25.8492 30.4337 26.6658L31.5837 31.6825C32.067 33.7658 31.767 35.3325 30.7337 36.0825C30.317 36.3825 29.817 36.5325 29.2337 36.5325C28.3837 36.5325 27.3837 36.2158 26.2837 35.5658L21.4003 32.6658C20.6337 32.2158 19.367 32.2158 18.6003 32.6658L13.717 35.5658C11.867 36.6492 10.2837 36.8325 9.26699 36.0825C8.88366 35.7992 8.60033 35.4158 8.41699 34.9158L28.6837 14.6492C29.4503 13.8825 30.5337 13.5325 31.5837 13.7158L33.267 13.9992C35.0337 14.2992 36.217 15.0992 36.6003 16.2658C36.967 17.4325 36.467 18.7825 35.2003 20.0492L31.167 24.0992Z" fill="#DFBC0B"/>
</svg>
