<svg width="820" height="214" viewBox="0 0 820 214" fill="none" xmlns="http://www.w3.org/2000/svg">
<path d="M16.4004 178.321H131.2" stroke="#202020" stroke-width="0.5" stroke-linecap="round"/>
<path d="M654.159 193.401C654.199 193.363 654.258 193.344 654.337 193.344C654.455 193.344 654.573 193.421 654.691 193.574C654.809 193.69 654.849 193.786 654.809 193.863C653.667 195.4 652.604 196.533 651.619 197.264C650.674 197.994 649.709 198.359 648.724 198.359C646.518 198.359 645.415 196.841 645.415 193.805L645.534 186.657C644.234 190.231 642.52 193.113 640.393 195.304C638.306 197.494 636.081 198.589 633.717 198.589C632.22 198.589 630.999 198.09 630.054 197.091C629.148 196.053 628.695 194.42 628.695 192.191C628.695 189.539 629.345 186.868 630.645 184.178C631.984 181.45 633.717 179.221 635.844 177.492C637.971 175.724 640.137 174.84 642.343 174.84C643.17 174.84 643.978 174.975 644.766 175.244C645.593 175.513 646.321 175.916 646.952 176.454C647.582 175.839 647.956 175.167 648.074 174.437C648.113 174.36 648.251 174.321 648.488 174.321C648.763 174.321 648.882 174.36 648.842 174.437L648.724 192.71C648.685 194.939 649.236 196.053 650.378 196.053C651.363 196.053 652.623 195.169 654.159 193.401ZM635.608 195.765C637.223 195.765 638.779 195.015 640.275 193.517C641.772 191.98 642.973 190.096 643.879 187.868C644.825 185.639 645.297 183.544 645.297 181.584C645.297 180.163 644.864 179.029 643.997 178.183C643.17 177.3 642.067 176.858 640.689 176.858C639.113 176.858 637.656 177.415 636.317 178.529C634.978 179.644 633.914 181.181 633.126 183.141C632.339 185.101 631.945 187.291 631.945 189.712C631.945 191.787 632.24 193.325 632.831 194.324C633.461 195.284 634.387 195.765 635.608 195.765Z" fill="#202020"/>
<path d="M623.885 193.361C624.043 193.361 624.181 193.438 624.299 193.592C624.456 193.707 624.515 193.803 624.476 193.88C623.216 195.455 622.113 196.608 621.167 197.338C620.261 198.03 619.296 198.376 618.272 198.376C616.067 198.376 614.964 196.858 614.964 193.822L615.023 181.198C615.023 179.815 614.767 178.873 614.255 178.374C613.743 177.836 612.738 177.509 611.242 177.394C609.745 177.24 606.968 177.163 602.911 177.163L603.62 199.068C603.66 199.721 603.679 200.624 603.679 201.777C603.679 204.774 603.463 207.138 603.029 208.867C602.596 210.596 601.907 211.826 600.961 212.556C600.016 213.325 598.736 213.709 597.121 213.709C595.664 213.709 594.522 213.459 593.694 212.96C592.907 212.499 592.493 211.922 592.454 211.231C592.375 210.693 592.513 210.251 592.867 209.905C593.261 209.597 593.793 209.444 594.462 209.444C595.132 209.444 595.624 209.578 595.939 209.847C596.294 210.155 596.648 210.616 597.003 211.231C597.279 211.692 597.535 212.038 597.771 212.268C598.007 212.537 598.342 212.672 598.775 212.672C599.366 212.672 599.78 212.268 600.016 211.461C600.292 210.693 600.43 209.155 600.43 206.85C600.43 205.274 600.371 203.18 600.252 200.566L599.603 180.218V180.103L599.543 180.218C599.465 179.411 599.327 178.835 599.13 178.489C598.972 178.143 598.677 177.912 598.244 177.797C597.81 177.682 597.082 177.605 596.058 177.567C594.009 177.451 590.918 177.394 586.782 177.394L587.491 199.068C587.53 199.721 587.55 200.624 587.55 201.777C587.55 204.774 587.333 207.138 586.9 208.867C586.467 210.596 585.777 211.826 584.832 212.556C583.887 213.325 582.607 213.709 580.992 213.709C579.534 213.709 578.412 213.459 577.624 212.96C576.797 212.499 576.364 211.922 576.324 211.231C576.246 210.693 576.403 210.251 576.797 209.905C577.152 209.597 577.664 209.444 578.333 209.444C579.003 209.444 579.495 209.578 579.81 209.847C580.165 210.155 580.519 210.616 580.874 211.231C581.149 211.692 581.405 212.038 581.642 212.268C581.878 212.537 582.213 212.672 582.646 212.672C583.237 212.672 583.651 212.268 583.887 211.461C584.163 210.693 584.3 209.155 584.3 206.85C584.3 205.274 584.241 203.18 584.123 200.566L583.473 180.218C583.395 179.219 583.257 178.508 583.06 178.085C582.863 177.663 582.489 177.394 581.937 177.278C581.425 177.125 580.519 177.048 579.219 177.048C579.062 177.048 578.963 176.933 578.924 176.702C578.924 176.471 578.983 176.356 579.101 176.356C580.677 176.356 581.76 176.183 582.351 175.837C582.942 175.453 583.237 174.761 583.237 173.762C583.394 168.574 584.419 164.885 586.309 162.694C588.2 160.466 590.937 159.351 594.522 159.351C597.121 159.351 599.524 159.908 601.729 161.023C603.581 157.679 606.554 156.008 610.651 156.008C612.778 156.008 614.432 156.392 615.614 157.161C616.835 157.891 617.445 158.775 617.445 159.812C617.445 160.888 616.854 161.426 615.673 161.426C615.082 161.426 614.59 161.253 614.196 160.908C613.841 160.562 613.447 160.062 613.014 159.409C612.423 158.563 611.872 157.929 611.36 157.507C610.887 157.084 610.198 156.872 609.292 156.872C607.204 156.872 605.57 158.045 604.388 160.389C603.246 162.733 602.675 166.153 602.675 170.649L602.734 172.552L602.852 176.068C606.397 176.029 610.158 175.914 614.137 175.722C615.87 175.645 616.933 175.607 617.327 175.607C617.76 175.607 618.036 175.684 618.154 175.837C618.272 175.991 618.331 176.356 618.331 176.933V179.238V181.025V192.727C618.331 193.88 618.45 194.725 618.686 195.263C618.962 195.801 619.395 196.07 619.986 196.07C620.97 196.07 622.231 195.186 623.767 193.419L623.885 193.361ZM586.723 176.241C591.528 176.241 594.62 176.222 595.999 176.183C597.141 176.106 597.988 175.895 598.539 175.549C599.091 175.165 599.366 174.569 599.366 173.762C599.366 170.073 599.701 166.979 600.371 164.481C599.504 163.252 598.421 162.233 597.121 161.426C595.821 160.619 594.502 160.216 593.163 160.216C591.036 160.216 589.401 161.273 588.259 163.386C587.156 165.461 586.605 168.517 586.605 172.552L586.723 176.241Z" fill="#202020"/>
<path d="M576.216 193.401C576.256 193.363 576.315 193.344 576.393 193.344C576.512 193.344 576.63 193.421 576.748 193.574C576.866 193.69 576.905 193.786 576.866 193.863C575.724 195.4 574.66 196.533 573.676 197.264C572.73 197.994 571.765 198.359 570.781 198.359C568.575 198.359 567.472 196.841 567.472 193.805L567.59 186.657C566.29 190.231 564.577 193.113 562.45 195.304C560.363 197.494 558.137 198.589 555.774 198.589C554.277 198.589 553.056 198.09 552.111 197.091C551.205 196.053 550.752 194.42 550.752 192.191C550.752 189.539 551.402 186.868 552.702 184.178C554.041 181.45 555.774 179.221 557.901 177.492C560.028 175.724 562.194 174.84 564.4 174.84C565.227 174.84 566.034 174.975 566.822 175.244C567.649 175.513 568.378 175.916 569.008 176.454C569.638 175.839 570.013 175.167 570.131 174.437C570.17 174.36 570.308 174.321 570.544 174.321C570.82 174.321 570.938 174.36 570.899 174.437L570.781 192.71C570.741 194.939 571.293 196.053 572.435 196.053C573.42 196.053 574.68 195.169 576.216 193.401ZM557.664 195.765C559.279 195.765 560.835 195.015 562.332 193.517C563.829 191.98 565.03 190.096 565.936 187.868C566.881 185.639 567.354 183.544 567.354 181.584C567.354 180.163 566.921 179.029 566.054 178.183C565.227 177.3 564.124 176.858 562.746 176.858C561.17 176.858 559.713 177.415 558.373 178.529C557.034 179.644 555.971 181.181 555.183 183.141C554.395 185.101 554.001 187.291 554.001 189.712C554.001 191.787 554.297 193.325 554.888 194.324C555.518 195.284 556.443 195.765 557.664 195.765Z" fill="#202020"/>
<path d="M547.03 197.173C547.188 197.173 547.266 197.288 547.266 197.519C547.266 197.749 547.188 197.864 547.03 197.864H540.117C539.093 197.864 537.222 196.212 534.505 192.907C531.826 189.602 528.597 184.971 524.815 179.015C523.594 179.361 522.295 179.534 520.916 179.534C520.325 179.534 519.636 179.495 518.848 179.418L518.73 193.195C518.769 194.387 518.907 195.251 519.144 195.789C519.38 196.327 519.813 196.692 520.443 196.884C521.113 197.077 522.176 197.173 523.634 197.173C523.791 197.173 523.87 197.288 523.87 197.519C523.87 197.749 523.811 197.864 523.693 197.864C522.472 197.864 521.507 197.845 520.798 197.807L516.78 197.749L512.704 197.807C511.995 197.845 511.03 197.864 509.809 197.864C509.651 197.864 509.572 197.749 509.572 197.519C509.572 197.288 509.651 197.173 509.809 197.173C511.305 197.173 512.408 197.077 513.117 196.884C513.826 196.654 514.319 196.27 514.594 195.732C514.87 195.194 515.027 194.348 515.067 193.195V166.506C515.027 165.353 514.89 164.508 514.653 163.97C514.417 163.432 513.944 163.067 513.235 162.875C512.566 162.644 511.483 162.529 509.986 162.529C509.828 162.529 509.75 162.413 509.75 162.183C509.75 161.952 509.828 161.837 509.986 161.837L512.881 161.895C514.535 161.971 515.855 162.01 516.839 162.01C517.666 162.01 518.395 161.991 519.025 161.952C519.695 161.914 520.227 161.875 520.621 161.837C521.763 161.722 522.767 161.664 523.634 161.664C526.903 161.664 529.404 162.298 531.137 163.566C532.87 164.834 533.737 166.602 533.737 168.87C533.737 170.676 533.185 172.386 532.082 174C531.019 175.575 529.562 176.863 527.71 177.862C531.058 182.781 533.835 186.624 536.041 189.391C538.286 192.158 540.275 194.156 542.008 195.386C543.741 196.577 545.415 197.173 547.03 197.173ZM518.73 178.035C519.793 178.15 520.857 178.208 521.92 178.208C524.677 178.208 526.667 177.631 527.888 176.479C529.109 175.326 529.719 173.443 529.719 170.829C529.719 167.909 529.069 165.795 527.769 164.489C526.47 163.182 524.717 162.529 522.511 162.529C521.408 162.529 520.621 162.606 520.148 162.759C519.675 162.875 519.321 163.22 519.084 163.797C518.887 164.335 518.769 165.276 518.73 166.621V178.035Z" fill="#202020"/>
<path d="M486.988 175.958C487.972 175.958 488.465 176.553 488.465 177.745C488.465 178.706 488.189 179.647 487.637 180.569C487.125 181.453 486.416 182.183 485.51 182.76C484.605 183.336 483.64 183.624 482.615 183.624C481.513 183.624 480.095 183.221 478.362 182.414C477.653 187.679 475.841 191.695 472.926 194.461C470.051 197.19 466.467 198.554 462.173 198.554C459.495 198.554 457.092 197.939 454.965 196.71C452.878 195.441 451.243 193.77 450.062 191.695C448.88 189.619 448.289 187.371 448.289 184.95C448.289 183.913 448.407 182.875 448.644 181.837C449.116 179.801 450.022 177.956 451.361 176.304C452.7 174.651 454.276 173.364 456.088 172.442C457.9 171.519 459.731 171.058 461.582 171.058C463.552 171.058 465.167 171.596 466.427 172.672C468.79 170.097 469.972 167.849 469.972 165.928C469.972 165.198 469.854 164.64 469.618 164.256C469.381 163.833 469.046 163.449 468.613 163.103C468.298 162.796 468.062 162.527 467.904 162.296C467.747 162.066 467.668 161.739 467.668 161.316C467.668 160.74 467.845 160.279 468.2 159.933C468.554 159.587 469.007 159.414 469.558 159.414C470.425 159.414 471.134 159.798 471.685 160.567C472.237 161.336 472.513 162.354 472.513 163.622C472.513 165.774 471.685 167.965 470.031 170.193C468.377 172.422 466.388 174.517 464.064 176.477C461.74 178.398 458.825 180.646 455.32 183.221L451.893 185.815C452.287 187.89 453.094 189.735 454.315 191.349C455.536 192.924 456.994 194.154 458.687 195.038C460.42 195.883 462.232 196.306 464.123 196.306C467.707 196.306 470.681 195.076 473.044 192.617C475.447 190.157 476.904 186.622 477.416 182.01L476.294 181.434C474.639 180.589 473.32 179.974 472.335 179.589C471.351 179.167 470.405 178.955 469.499 178.955C468.948 178.955 468.495 179.071 468.14 179.301C467.825 179.532 467.668 179.82 467.668 180.166C467.668 180.627 467.825 181.165 468.14 181.78C468.456 182.472 468.613 182.971 468.613 183.279C468.613 183.624 468.495 183.951 468.259 184.259C468.022 184.528 467.668 184.662 467.195 184.662C466.723 184.662 466.329 184.528 466.014 184.259C465.738 183.951 465.6 183.471 465.6 182.817C465.6 181.818 465.915 180.858 466.545 179.935C467.215 179.013 468.062 178.283 469.086 177.745C470.149 177.168 471.232 176.88 472.335 176.88C473.32 176.88 474.324 177.091 475.348 177.514C476.412 177.899 477.712 178.475 479.248 179.244C480.508 179.897 481.591 180.416 482.497 180.8C483.403 181.146 484.23 181.319 484.979 181.319C485.491 181.319 485.904 181.223 486.219 181.03C486.574 180.8 486.751 180.531 486.751 180.223C486.751 179.878 486.554 179.436 486.16 178.898C485.924 178.59 485.747 178.321 485.629 178.091C485.51 177.86 485.451 177.591 485.451 177.284C485.451 176.4 485.963 175.958 486.988 175.958ZM451.893 179.993C451.696 181.223 451.598 182.26 451.598 183.106C451.598 183.528 451.637 184.124 451.716 184.893C452.779 184.047 453.882 183.202 455.024 182.356C458.609 179.666 461.405 177.437 463.414 175.67C462.429 173.633 460.814 172.614 458.569 172.614C457.033 172.614 455.655 173.325 454.434 174.747C453.252 176.131 452.405 177.879 451.893 179.993Z" fill="#202020"/>
<path d="M424.735 193.764C424.853 193.764 424.991 193.841 425.148 193.995C425.306 194.11 425.326 194.206 425.207 194.283C423.593 195.782 422.116 196.877 420.776 197.569C419.477 198.222 418.177 198.549 416.877 198.549C415.341 198.549 414.061 198.165 413.037 197.396C412.052 196.627 411.579 195.379 411.619 193.649L411.678 180.218C411.678 179.334 411.56 178.719 411.323 178.374C411.087 178.028 410.752 177.816 410.319 177.74C409.886 177.624 409.078 177.547 407.897 177.509L399.684 177.336L400.393 199.068C400.433 199.721 400.452 200.624 400.452 201.777C400.452 204.774 400.236 207.138 399.802 208.867C399.369 210.596 398.68 211.826 397.734 212.556C396.789 213.325 395.509 213.709 393.894 213.709C392.437 213.709 391.314 213.459 390.527 212.96C389.699 212.499 389.266 211.922 389.227 211.231C389.148 210.693 389.306 210.251 389.699 209.905C390.054 209.597 390.566 209.444 391.235 209.444C391.905 209.444 392.397 209.578 392.713 209.847C393.067 210.155 393.422 210.616 393.776 211.231C394.052 211.692 394.308 212.038 394.544 212.268C394.78 212.537 395.115 212.672 395.548 212.672C396.139 212.672 396.553 212.268 396.789 211.461C397.065 210.693 397.203 209.155 397.203 206.85C397.203 205.274 397.144 203.18 397.026 200.566L396.376 180.218C396.297 179.181 396.159 178.47 395.962 178.085C395.765 177.663 395.391 177.394 394.839 177.278C394.288 177.125 393.343 177.048 392.004 177.048C391.846 177.048 391.767 176.933 391.767 176.702C391.767 176.471 391.846 176.356 392.004 176.356C393.579 176.356 394.662 176.183 395.253 175.837C395.844 175.453 396.139 174.761 396.139 173.762C396.061 169.035 396.297 165.423 396.848 162.925C397.439 160.389 398.404 158.602 399.743 157.564C401.122 156.527 403.111 156.008 405.711 156.008C407.207 156.008 408.428 156.315 409.374 156.93C410.358 157.507 410.89 158.198 410.969 159.005C410.969 159.582 410.792 160.024 410.437 160.331C410.083 160.6 409.61 160.735 409.019 160.735C408.428 160.735 407.956 160.581 407.601 160.273C407.247 159.966 406.872 159.486 406.479 158.832C406.045 158.141 405.651 157.641 405.297 157.334C404.942 157.026 404.45 156.872 403.82 156.872C400.905 156.872 399.448 161.08 399.448 169.496C399.448 170.841 399.468 171.86 399.507 172.552L399.625 176.298C403.958 176.298 406.853 176.26 408.31 176.183C409.964 176.183 411.284 175.799 412.269 175.03C413.293 174.223 413.883 173.186 414.041 171.917C414.041 171.764 414.199 171.687 414.514 171.687C414.671 171.687 414.809 171.706 414.927 171.745C415.045 171.783 415.104 171.841 415.104 171.917V176.183C416.641 176.145 419.358 176.01 423.258 175.78C423.415 175.78 423.553 175.837 423.671 175.953C423.789 176.029 423.849 176.145 423.849 176.298C423.77 176.683 423.533 177.105 423.14 177.567C422.785 178.028 422.391 178.22 421.958 178.143C419.24 177.797 416.936 177.605 415.045 177.567L414.986 191.862C414.947 193.438 415.242 194.591 415.873 195.321C416.503 196.013 417.507 196.358 418.886 196.358C420.067 196.358 421.091 196.147 421.958 195.724C422.824 195.263 423.73 194.61 424.676 193.764H424.735Z" fill="#202020"/>
<path d="M389.126 193.401C389.166 193.363 389.225 193.344 389.304 193.344C389.422 193.344 389.54 193.421 389.658 193.574C389.776 193.69 389.816 193.786 389.776 193.863C388.634 195.4 387.57 196.533 386.586 197.264C385.64 197.994 384.675 198.359 383.691 198.359C381.485 198.359 380.382 196.841 380.382 193.805L380.5 186.657C379.201 190.231 377.487 193.113 375.36 195.304C373.273 197.494 371.047 198.589 368.684 198.589C367.187 198.589 365.966 198.09 365.021 197.091C364.115 196.053 363.662 194.42 363.662 192.191C363.662 189.539 364.312 186.868 365.612 184.178C366.951 181.45 368.684 179.221 370.811 177.492C372.938 175.724 375.104 174.84 377.31 174.84C378.137 174.84 378.945 174.975 379.732 175.244C380.559 175.513 381.288 175.916 381.918 176.454C382.549 175.839 382.923 175.167 383.041 174.437C383.08 174.36 383.218 174.321 383.454 174.321C383.73 174.321 383.848 174.36 383.809 174.437L383.691 192.71C383.651 194.939 384.203 196.053 385.345 196.053C386.33 196.053 387.59 195.169 389.126 193.401ZM370.575 195.765C372.19 195.765 373.745 195.015 375.242 193.517C376.739 191.98 377.94 190.096 378.846 187.868C379.791 185.639 380.264 183.544 380.264 181.584C380.264 180.163 379.831 179.029 378.964 178.183C378.137 177.3 377.034 176.858 375.656 176.858C374.08 176.858 372.623 177.415 371.284 178.529C369.944 179.644 368.881 181.181 368.093 183.141C367.305 185.101 366.912 187.291 366.912 189.712C366.912 191.787 367.207 193.325 367.798 194.324C368.428 195.284 369.354 195.765 370.575 195.765Z" fill="#202020"/>
<path d="M355.73 175.04C356.636 175.04 357.502 175.328 358.33 175.905C359.196 176.481 359.629 177.134 359.629 177.865C359.629 178.403 359.432 178.864 359.039 179.248C358.645 179.594 358.192 179.767 357.68 179.767C357.246 179.767 356.892 179.69 356.616 179.536C356.341 179.383 356.045 179.171 355.73 178.902C355.533 178.71 355.316 178.556 355.08 178.441C354.883 178.287 354.647 178.21 354.371 178.21C353.465 178.21 352.579 179.306 351.712 181.496C350.846 183.687 350.117 186.319 349.526 189.393C348.975 192.429 348.68 195.119 348.64 197.463C348.64 197.732 348.463 197.944 348.108 198.098C347.793 198.251 347.34 198.328 346.75 198.328C346.159 198.328 345.765 198.29 345.568 198.213C345.371 198.174 345.253 198.098 345.213 197.982C345.213 197.829 345.233 197.406 345.273 196.714C345.312 195.984 345.332 194.946 345.332 193.601L345.45 182.937C345.45 179.21 344.701 177.346 343.205 177.346C342.023 177.346 340.763 178.038 339.423 179.421L339.305 179.479C339.187 179.479 339.089 179.421 339.01 179.306C338.892 179.19 338.852 179.094 338.892 179.017C339.876 177.788 340.94 176.827 342.082 176.135C343.264 175.444 344.367 175.098 345.391 175.098C346.494 175.098 347.321 175.636 347.872 176.712C348.463 177.788 348.739 179.824 348.699 182.822V189.509C349.29 185.474 350.196 182.053 351.417 179.248C352.638 176.443 354.076 175.04 355.73 175.04Z" fill="#202020"/>
<path d="M328.357 198.602C326.072 198.602 324.142 198.025 322.567 196.872C321.031 195.72 319.889 194.278 319.14 192.549C318.392 190.781 318.018 188.975 318.018 187.131C318.018 184.633 318.569 182.462 319.672 180.617C320.775 178.772 322.212 177.35 323.985 176.351C325.797 175.352 327.668 174.853 329.598 174.853C331.291 174.853 332.768 175.198 334.029 175.89C335.289 176.543 335.919 177.427 335.919 178.542C335.919 179.003 335.762 179.387 335.447 179.695C335.171 179.964 334.738 180.098 334.147 180.098C333.477 180.098 332.946 179.944 332.552 179.637C332.158 179.33 331.784 178.868 331.429 178.254C330.563 176.832 329.263 176.121 327.53 176.121C325.482 176.121 323.965 176.985 322.98 178.715C322.035 180.406 321.562 182.558 321.562 185.171C321.562 188.36 322.35 191.07 323.926 193.299C325.501 195.489 327.766 196.584 330.72 196.584C332.571 196.584 334.383 196.046 336.156 194.97H336.215C336.333 194.97 336.451 195.047 336.569 195.201C336.727 195.316 336.766 195.431 336.687 195.547C335.427 196.584 334.068 197.353 332.611 197.852C331.193 198.352 329.775 198.602 328.357 198.602Z" fill="#202020"/>
<path d="M297.701 193.455C297.74 193.416 297.799 193.397 297.878 193.397C297.996 193.397 298.114 193.474 298.232 193.628C298.39 193.743 298.449 193.839 298.409 193.916C297.149 195.491 296.046 196.644 295.101 197.375C294.195 198.066 293.23 198.412 292.206 198.412C291.103 198.412 290.256 198.028 289.665 197.259C289.114 196.452 288.858 195.319 288.897 193.858L289.016 187.287C287.794 190.784 286.258 193.551 284.407 195.588C282.595 197.624 280.547 198.643 278.263 198.643C276.411 198.643 274.816 197.97 273.477 196.625C272.177 195.28 271.527 193.243 271.527 190.515C271.527 187.786 272.197 185.231 273.536 182.848C274.875 180.427 276.628 178.506 278.794 177.084C281 175.624 283.285 174.893 285.648 174.893C286.987 174.893 288.169 175.143 289.193 175.643L289.37 162.212C289.449 160.406 288.819 159.503 287.479 159.503C286.731 159.503 285.727 159.791 284.466 160.367C284.427 160.406 284.368 160.425 284.289 160.425C284.131 160.425 284.013 160.329 283.934 160.137C283.895 159.944 283.954 159.81 284.112 159.733L291.851 156.102H291.97C292.088 156.102 292.226 156.159 292.383 156.274C292.541 156.39 292.619 156.486 292.619 156.563L292.265 192.763C292.265 193.916 292.383 194.761 292.619 195.299C292.895 195.837 293.328 196.106 293.919 196.106C294.825 196.106 296.086 195.222 297.701 193.455ZM279.799 195.818C281.611 195.818 283.206 195.03 284.584 193.455C286.002 191.841 287.105 189.938 287.893 187.748C288.681 185.519 289.075 183.559 289.075 181.868C289.075 180.254 288.622 179.025 287.716 178.179C286.81 177.334 285.51 176.911 283.816 176.911C282.083 176.911 280.527 177.372 279.149 178.294C277.77 179.178 276.687 180.485 275.899 182.214C275.112 183.905 274.718 185.923 274.718 188.267C274.757 190.803 275.23 192.705 276.136 193.974C277.042 195.203 278.263 195.818 279.799 195.818Z" fill="#202020"/>
<path d="M253.755 198.659C251.707 198.659 249.915 198.179 248.379 197.218C246.882 196.219 245.72 194.874 244.893 193.183C244.066 191.492 243.652 189.59 243.652 187.477C243.652 185.094 244.145 182.942 245.129 181.02C246.114 179.099 247.473 177.6 249.206 176.524C250.978 175.41 252.987 174.853 255.232 174.853C258.226 174.853 260.648 175.832 262.499 177.792C264.39 179.714 265.335 182.385 265.335 185.805C265.335 188.418 264.804 190.705 263.74 192.664C262.677 194.624 261.259 196.123 259.486 197.161C257.714 198.16 255.803 198.659 253.755 198.659ZM255.528 197.218C257.458 197.218 259.053 196.431 260.313 194.855C261.574 193.279 262.204 191.147 262.204 188.456C262.204 186.381 261.83 184.402 261.081 182.519C260.372 180.636 259.348 179.118 258.009 177.965C256.709 176.812 255.232 176.236 253.578 176.236C251.648 176.236 250.033 177.005 248.733 178.542C247.434 180.079 246.784 182.193 246.784 184.883C246.784 186.919 247.158 188.898 247.906 190.82C248.655 192.703 249.698 194.24 251.038 195.431C252.377 196.623 253.873 197.218 255.528 197.218Z" fill="#202020"/>
<path d="M226.181 198.659C224.133 198.659 222.341 198.179 220.805 197.218C219.308 196.219 218.146 194.874 217.319 193.183C216.492 191.492 216.078 189.59 216.078 187.477C216.078 185.094 216.57 182.942 217.555 181.02C218.54 179.099 219.899 177.6 221.632 176.524C223.404 175.41 225.413 174.853 227.658 174.853C230.652 174.853 233.074 175.832 234.925 177.792C236.816 179.714 237.761 182.385 237.761 185.805C237.761 188.418 237.229 190.705 236.166 192.664C235.102 194.624 233.684 196.123 231.912 197.161C230.14 198.16 228.229 198.659 226.181 198.659ZM227.954 197.218C229.884 197.218 231.479 196.431 232.739 194.855C234 193.279 234.63 191.147 234.63 188.456C234.63 186.381 234.256 184.402 233.507 182.519C232.798 180.636 231.774 179.118 230.435 177.965C229.135 176.812 227.658 176.236 226.004 176.236C224.074 176.236 222.459 177.005 221.159 178.542C219.859 180.079 219.209 182.193 219.209 184.883C219.209 186.919 219.584 188.898 220.332 190.82C221.08 192.703 222.124 194.24 223.463 195.431C224.803 196.623 226.299 197.218 227.954 197.218Z" fill="#202020"/>
<path d="M215.539 161.82C215.736 161.82 215.834 161.936 215.834 162.166C215.834 162.397 215.736 162.512 215.539 162.512C214.239 162.512 213.136 162.819 212.23 163.434C211.324 164.049 210.537 165.221 209.867 166.951L197.873 197.79C197.873 197.944 197.676 198.021 197.283 198.021C196.889 198.021 196.672 197.944 196.633 197.79L189.366 181.419L183.044 197.79C183.005 197.944 182.768 198.021 182.335 198.021C181.902 198.021 181.665 197.944 181.626 197.79L167.801 166.605C167.21 165.106 166.56 164.049 165.851 163.434C165.142 162.819 164.217 162.512 163.074 162.512C162.917 162.512 162.838 162.397 162.838 162.166C162.799 161.936 162.858 161.82 163.015 161.82L165.497 161.878C166.678 161.955 167.505 161.993 167.978 161.993C169.081 161.993 170.381 161.955 171.877 161.878L174.241 161.82C174.398 161.82 174.477 161.936 174.477 162.166C174.477 162.397 174.398 162.512 174.241 162.512C173.217 162.512 172.429 162.647 171.877 162.916C171.365 163.185 171.109 163.665 171.109 164.357C171.109 164.818 171.247 165.375 171.523 166.028L183.694 193.121L188.657 179.863L182.749 166.605C182.079 165.068 181.409 164.011 180.74 163.434C180.07 162.819 179.184 162.512 178.081 162.512C177.924 162.512 177.845 162.397 177.845 162.166C177.845 161.936 177.904 161.82 178.022 161.82L180.444 161.878C181.547 161.955 182.374 161.993 182.926 161.993C183.753 161.993 184.718 161.955 185.821 161.878L187.357 161.82C187.554 161.82 187.652 161.936 187.652 162.166C187.652 162.397 187.554 162.512 187.357 162.512C186.687 162.512 186.215 162.57 185.939 162.685C185.663 162.762 185.525 162.973 185.525 163.319C185.525 163.703 185.86 164.606 186.53 166.028L190.784 175.597L194.151 166.605C194.585 165.529 194.801 164.722 194.801 164.184C194.801 163.069 193.935 162.512 192.202 162.512C192.083 162.512 192.005 162.397 191.965 162.166C191.965 161.936 192.044 161.82 192.202 161.82L193.797 161.878C194.585 161.955 195.333 161.993 196.042 161.993C196.711 161.993 197.558 161.955 198.582 161.878L200.887 161.82C201.044 161.82 201.123 161.936 201.123 162.166C201.162 162.397 201.103 162.512 200.946 162.512C199.685 162.512 198.622 162.819 197.755 163.434C196.928 164.049 196.18 165.221 195.51 166.951L191.552 177.269L198.582 193.121L208.626 166.605C208.863 165.913 208.981 165.337 208.981 164.875C208.981 164.068 208.646 163.473 207.976 163.088C207.307 162.704 206.224 162.512 204.727 162.512C204.569 162.512 204.491 162.397 204.491 162.166C204.491 161.936 204.569 161.82 204.727 161.82L206.972 161.878C208.232 161.955 209.394 161.993 210.458 161.993C211.167 161.993 212.033 161.955 213.057 161.878L215.539 161.82Z" fill="#202020"/>
<path d="M685.592 178.321H800.392" stroke="#202020" stroke-width="0.5" stroke-linecap="round"/>
<path d="M775.004 88.2272C783.265 88.2272 789.786 85.4702 794.568 79.9559C799.495 74.4417 801.959 66.9481 801.959 57.475V0H820.001V58.1112C820.001 72.8158 815.871 84.2683 807.611 92.4689C799.35 100.67 788.482 104.77 775.004 104.77C761.527 104.77 750.658 100.67 742.398 92.4689C734.138 84.2683 730.008 72.8158 730.008 58.1112V0H747.833V57.475C747.833 67.0895 750.296 74.5831 755.223 79.9559C760.006 85.4702 766.599 88.2272 775.004 88.2272Z" fill="#202020"/>
<path d="M601.841 80.168L591.19 103.709H572.061L619.014 0H638.143L684.878 103.709H665.749L655.098 80.168H601.841ZM647.924 63.8375L628.578 21.2085L609.232 63.8375H647.924Z" fill="#202020"/>
<path d="M507.738 0H525.562V103.709H506.216L446.003 27.9952V103.709H427.961V0H446.003L507.738 77.4109V0Z" fill="#202020"/>
<path d="M298.489 80.168L287.838 103.709H268.709L315.662 0H334.791L381.527 103.709H362.398L351.746 80.168H298.489ZM344.573 63.8375L325.226 21.2085L305.88 63.8375H344.573Z" fill="#202020"/>
<path d="M133.67 103.709V0H151.712V44.962H204.317V0H222.359V103.709H204.317V61.2925H151.712V103.709H133.67Z" fill="#202020"/>
<path d="M50.2136 15.9064V103.709H32.1715V15.9064H0V0H82.3851V15.9064H50.2136Z" fill="#202020"/>
</svg>
