<svg width="543" height="238" viewBox="0 0 543 238" fill="none" xmlns="http://www.w3.org/2000/svg">
<path d="M10.8516 117.988H86.8103" stroke="#202020" stroke-width="0.330831" stroke-linecap="round"/>
<path d="M432.833 127.966C432.859 127.941 432.898 127.928 432.95 127.928C433.029 127.928 433.107 127.979 433.185 128.081C433.263 128.157 433.289 128.221 433.263 128.272C432.507 129.289 431.804 130.039 431.152 130.522C430.527 131.005 429.888 131.246 429.237 131.246C427.777 131.246 427.047 130.242 427.047 128.233L427.126 123.504C426.266 125.869 425.132 127.776 423.725 129.225C422.343 130.674 420.871 131.399 419.307 131.399C418.317 131.399 417.509 131.068 416.883 130.407C416.284 129.721 415.984 128.64 415.984 127.165C415.984 125.411 416.414 123.644 417.274 121.864C418.161 120.059 419.307 118.584 420.715 117.44C422.122 116.27 423.555 115.685 425.015 115.685C425.562 115.685 426.096 115.774 426.617 115.952C427.165 116.13 427.647 116.397 428.064 116.753C428.481 116.346 428.728 115.901 428.807 115.418C428.833 115.367 428.924 115.342 429.08 115.342C429.263 115.342 429.341 115.367 429.315 115.418L429.237 127.509C429.211 128.983 429.575 129.721 430.331 129.721C430.983 129.721 431.817 129.136 432.833 127.966ZM420.558 129.53C421.627 129.53 422.656 129.034 423.646 128.043C424.637 127.026 425.432 125.78 426.031 124.305C426.657 122.83 426.969 121.444 426.969 120.148C426.969 119.207 426.683 118.457 426.109 117.897C425.562 117.312 424.832 117.02 423.92 117.02C422.878 117.02 421.913 117.389 421.027 118.126C420.141 118.863 419.438 119.881 418.916 121.177C418.395 122.474 418.134 123.923 418.134 125.525C418.134 126.898 418.33 127.916 418.721 128.577C419.138 129.212 419.75 129.53 420.558 129.53Z" fill="#202020"/>
<path d="M412.803 127.94C412.907 127.94 412.998 127.991 413.076 128.092C413.18 128.169 413.219 128.232 413.193 128.283C412.359 129.326 411.63 130.088 411.004 130.572C410.405 131.029 409.766 131.258 409.089 131.258C407.629 131.258 406.9 130.254 406.9 128.245L406.939 119.892C406.939 118.977 406.769 118.354 406.43 118.023C406.092 117.667 405.427 117.451 404.437 117.375C403.446 117.273 401.609 117.222 398.925 117.222L399.394 131.716C399.42 132.148 399.433 132.746 399.433 133.508C399.433 135.492 399.29 137.055 399.003 138.2C398.716 139.344 398.26 140.158 397.635 140.641C397.009 141.149 396.162 141.403 395.094 141.403C394.13 141.403 393.374 141.238 392.826 140.908C392.305 140.603 392.032 140.221 392.005 139.763C391.953 139.407 392.045 139.115 392.279 138.886C392.54 138.683 392.892 138.581 393.335 138.581C393.778 138.581 394.103 138.67 394.312 138.848C394.546 139.051 394.781 139.357 395.016 139.763C395.198 140.069 395.367 140.297 395.524 140.45C395.68 140.628 395.902 140.717 396.188 140.717C396.579 140.717 396.853 140.45 397.009 139.916C397.192 139.407 397.283 138.39 397.283 136.865C397.283 135.822 397.244 134.436 397.166 132.707L396.736 119.244V119.167L396.697 119.244C396.644 118.71 396.553 118.328 396.423 118.1C396.319 117.871 396.123 117.718 395.837 117.642C395.55 117.566 395.068 117.515 394.39 117.489C393.035 117.413 390.989 117.375 388.253 117.375L388.722 131.716C388.748 132.148 388.761 132.746 388.761 133.508C388.761 135.492 388.618 137.055 388.331 138.2C388.044 139.344 387.588 140.158 386.963 140.641C386.337 141.149 385.49 141.403 384.422 141.403C383.457 141.403 382.715 141.238 382.193 140.908C381.646 140.603 381.359 140.221 381.333 139.763C381.281 139.407 381.385 139.115 381.646 138.886C381.881 138.683 382.219 138.581 382.662 138.581C383.106 138.581 383.431 138.67 383.64 138.848C383.874 139.051 384.109 139.357 384.343 139.763C384.526 140.069 384.695 140.297 384.852 140.45C385.008 140.628 385.23 140.717 385.516 140.717C385.907 140.717 386.181 140.45 386.337 139.916C386.52 139.407 386.611 138.39 386.611 136.865C386.611 135.822 386.572 134.436 386.494 132.707L386.064 119.244C386.011 118.583 385.92 118.112 385.79 117.833C385.66 117.553 385.412 117.375 385.047 117.299C384.708 117.197 384.109 117.146 383.249 117.146C383.145 117.146 383.079 117.07 383.053 116.917C383.053 116.765 383.092 116.688 383.171 116.688C384.213 116.688 384.93 116.574 385.321 116.345C385.712 116.091 385.907 115.633 385.907 114.972C386.011 111.539 386.689 109.098 387.94 107.649C389.191 106.174 391.002 105.437 393.374 105.437C395.094 105.437 396.684 105.805 398.143 106.543C399.368 104.331 401.335 103.225 404.046 103.225C405.453 103.225 406.548 103.479 407.33 103.987C408.138 104.471 408.541 105.055 408.541 105.742C408.541 106.454 408.151 106.81 407.369 106.81C406.978 106.81 406.652 106.695 406.391 106.467C406.157 106.238 405.896 105.907 405.61 105.475C405.219 104.916 404.854 104.496 404.515 104.216C404.202 103.937 403.746 103.797 403.147 103.797C401.766 103.797 400.684 104.572 399.902 106.123C399.146 107.674 398.768 109.937 398.768 112.912L398.808 114.171L398.886 116.498C401.231 116.472 403.72 116.396 406.352 116.269C407.499 116.218 408.203 116.192 408.463 116.192C408.75 116.192 408.932 116.243 409.011 116.345C409.089 116.447 409.128 116.688 409.128 117.07V118.595V119.778V127.52C409.128 128.283 409.206 128.842 409.362 129.198C409.545 129.554 409.831 129.732 410.222 129.732C410.874 129.732 411.708 129.148 412.724 127.978L412.803 127.94ZM388.214 116.612C391.393 116.612 393.439 116.599 394.351 116.574C395.107 116.523 395.667 116.383 396.032 116.154C396.397 115.9 396.579 115.506 396.579 114.972C396.579 112.531 396.801 110.484 397.244 108.831C396.67 108.018 395.954 107.344 395.094 106.81C394.234 106.276 393.361 106.009 392.475 106.009C391.067 106.009 389.986 106.708 389.23 108.107C388.5 109.48 388.135 111.501 388.135 114.171L388.214 116.612Z" fill="#202020"/>
<path d="M381.261 127.966C381.287 127.941 381.326 127.928 381.378 127.928C381.456 127.928 381.534 127.979 381.613 128.081C381.691 128.157 381.717 128.221 381.691 128.272C380.935 129.289 380.231 130.039 379.58 130.522C378.954 131.005 378.316 131.246 377.664 131.246C376.205 131.246 375.475 130.242 375.475 128.233L375.553 123.504C374.693 125.869 373.56 127.776 372.152 129.225C370.771 130.674 369.299 131.399 367.735 131.399C366.745 131.399 365.937 131.068 365.311 130.407C364.712 129.721 364.412 128.64 364.412 127.165C364.412 125.411 364.842 123.644 365.702 121.864C366.588 120.059 367.735 118.584 369.142 117.44C370.55 116.27 371.983 115.685 373.442 115.685C373.99 115.685 374.524 115.774 375.045 115.952C375.592 116.13 376.075 116.397 376.492 116.753C376.909 116.346 377.156 115.901 377.234 115.418C377.26 115.367 377.352 115.342 377.508 115.342C377.69 115.342 377.769 115.367 377.743 115.418L377.664 127.509C377.638 128.983 378.003 129.721 378.759 129.721C379.41 129.721 380.244 129.136 381.261 127.966ZM368.986 129.53C370.054 129.53 371.084 129.034 372.074 128.043C373.064 127.026 373.859 125.78 374.459 124.305C375.084 122.83 375.397 121.444 375.397 120.148C375.397 119.207 375.11 118.457 374.537 117.897C373.99 117.312 373.26 117.02 372.348 117.02C371.305 117.02 370.341 117.389 369.455 118.126C368.569 118.863 367.865 119.881 367.344 121.177C366.823 122.474 366.562 123.923 366.562 125.525C366.562 126.898 366.758 127.916 367.149 128.577C367.566 129.212 368.178 129.53 368.986 129.53Z" fill="#202020"/>
<path d="M361.95 130.461C362.055 130.461 362.107 130.538 362.107 130.69C362.107 130.843 362.055 130.919 361.95 130.919H357.377C356.699 130.919 355.461 129.826 353.663 127.639C351.891 125.452 349.754 122.388 347.252 118.447C346.444 118.676 345.584 118.79 344.672 118.79C344.281 118.79 343.825 118.765 343.303 118.714L343.225 127.83C343.251 128.618 343.343 129.19 343.499 129.546C343.655 129.902 343.942 130.144 344.359 130.271C344.802 130.398 345.506 130.461 346.47 130.461C346.574 130.461 346.626 130.538 346.626 130.69C346.626 130.843 346.587 130.919 346.509 130.919C345.701 130.919 345.063 130.906 344.594 130.881L341.935 130.843L339.238 130.881C338.769 130.906 338.13 130.919 337.322 130.919C337.218 130.919 337.166 130.843 337.166 130.69C337.166 130.538 337.218 130.461 337.322 130.461C338.313 130.461 339.042 130.398 339.512 130.271C339.981 130.118 340.306 129.864 340.489 129.508C340.671 129.152 340.776 128.593 340.802 127.83V110.171C340.776 109.408 340.684 108.848 340.528 108.492C340.372 108.136 340.059 107.895 339.59 107.768C339.147 107.615 338.43 107.539 337.44 107.539C337.335 107.539 337.283 107.463 337.283 107.31C337.283 107.158 337.335 107.081 337.44 107.081L339.355 107.119C340.45 107.17 341.323 107.196 341.974 107.196C342.522 107.196 343.004 107.183 343.421 107.158C343.864 107.132 344.216 107.107 344.476 107.081C345.232 107.005 345.897 106.967 346.47 106.967C348.633 106.967 350.288 107.386 351.435 108.225C352.581 109.065 353.155 110.234 353.155 111.734C353.155 112.929 352.79 114.061 352.06 115.129C351.356 116.171 350.392 117.023 349.167 117.684C351.383 120.939 353.22 123.482 354.679 125.312C356.165 127.143 357.481 128.465 358.628 129.279C359.774 130.067 360.882 130.461 361.95 130.461ZM343.225 117.799C343.929 117.875 344.633 117.913 345.336 117.913C347.161 117.913 348.477 117.532 349.285 116.769C350.092 116.006 350.496 114.76 350.496 113.031C350.496 111.099 350.066 109.7 349.206 108.836C348.346 107.971 347.187 107.539 345.727 107.539C344.997 107.539 344.476 107.59 344.164 107.691C343.851 107.768 343.616 107.997 343.46 108.378C343.33 108.734 343.251 109.357 343.225 110.247V117.799Z" fill="#202020"/>
<path d="M322.223 116.425C322.874 116.425 323.2 116.819 323.2 117.607C323.2 118.243 323.017 118.866 322.653 119.476C322.314 120.061 321.845 120.544 321.245 120.926C320.646 121.307 320.007 121.498 319.33 121.498C318.6 121.498 317.662 121.231 316.515 120.697C316.046 124.18 314.847 126.837 312.919 128.668C311.016 130.473 308.645 131.376 305.804 131.376C304.032 131.376 302.442 130.969 301.035 130.156C299.653 129.316 298.572 128.21 297.79 126.837C297.008 125.464 296.617 123.977 296.617 122.375C296.617 121.688 296.695 121.002 296.852 120.315C297.164 118.968 297.764 117.747 298.65 116.654C299.536 115.56 300.579 114.709 301.777 114.098C302.976 113.488 304.188 113.183 305.413 113.183C306.716 113.183 307.784 113.539 308.618 114.251C310.182 112.547 310.964 111.06 310.964 109.788C310.964 109.305 310.886 108.937 310.729 108.682C310.573 108.403 310.352 108.148 310.065 107.92C309.856 107.716 309.7 107.538 309.596 107.386C309.492 107.233 309.439 107.017 309.439 106.737C309.439 106.356 309.557 106.051 309.791 105.822C310.026 105.593 310.325 105.479 310.69 105.479C311.264 105.479 311.733 105.733 312.098 106.241C312.463 106.75 312.645 107.424 312.645 108.263C312.645 109.687 312.098 111.136 311.003 112.611C309.908 114.086 308.592 115.471 307.055 116.768C305.517 118.04 303.589 119.527 301.269 121.231L299.002 122.947C299.262 124.32 299.797 125.541 300.605 126.608C301.412 127.651 302.377 128.465 303.497 129.049C304.644 129.609 305.843 129.889 307.094 129.889C309.465 129.889 311.433 129.075 312.997 127.448C314.587 125.82 315.551 123.481 315.89 120.43L315.147 120.048C314.052 119.489 313.179 119.082 312.528 118.828C311.876 118.548 311.251 118.408 310.651 118.408C310.286 118.408 309.987 118.485 309.752 118.637C309.544 118.79 309.439 118.98 309.439 119.209C309.439 119.514 309.544 119.87 309.752 120.277C309.961 120.735 310.065 121.065 310.065 121.269C310.065 121.498 309.987 121.714 309.83 121.917C309.674 122.095 309.439 122.184 309.127 122.184C308.814 122.184 308.553 122.095 308.345 121.917C308.162 121.714 308.071 121.396 308.071 120.964C308.071 120.303 308.28 119.667 308.697 119.057C309.14 118.446 309.7 117.963 310.378 117.607C311.081 117.226 311.798 117.035 312.528 117.035C313.179 117.035 313.844 117.175 314.521 117.455C315.225 117.709 316.085 118.09 317.101 118.599C317.935 119.031 318.652 119.374 319.252 119.629C319.851 119.858 320.398 119.972 320.893 119.972C321.232 119.972 321.506 119.908 321.714 119.781C321.949 119.629 322.066 119.451 322.066 119.247C322.066 119.018 321.936 118.726 321.675 118.37C321.519 118.167 321.402 117.989 321.323 117.836C321.245 117.684 321.206 117.506 321.206 117.302C321.206 116.717 321.545 116.425 322.223 116.425ZM299.002 119.095C298.871 119.908 298.806 120.595 298.806 121.154C298.806 121.434 298.832 121.828 298.885 122.337C299.588 121.777 300.318 121.218 301.074 120.659C303.445 118.879 305.296 117.404 306.625 116.234C305.973 114.887 304.905 114.213 303.419 114.213C302.403 114.213 301.491 114.683 300.683 115.624C299.901 116.539 299.341 117.696 299.002 119.095Z" fill="#202020"/>
<path d="M281.031 128.207C281.109 128.207 281.2 128.258 281.304 128.359C281.409 128.436 281.422 128.499 281.344 128.55C280.275 129.542 279.298 130.266 278.412 130.724C277.552 131.156 276.692 131.372 275.832 131.372C274.815 131.372 273.968 131.118 273.291 130.61C272.639 130.101 272.326 129.275 272.352 128.131L272.391 119.244C272.391 118.659 272.313 118.252 272.157 118.023C272.001 117.794 271.779 117.655 271.492 117.604C271.206 117.527 270.671 117.477 269.89 117.451L264.456 117.337L264.925 131.716C264.951 132.148 264.964 132.746 264.964 133.508C264.964 135.492 264.821 137.055 264.534 138.2C264.247 139.344 263.791 140.158 263.166 140.641C262.54 141.149 261.693 141.403 260.625 141.403C259.66 141.403 258.918 141.238 258.396 140.908C257.849 140.603 257.563 140.221 257.536 139.763C257.484 139.407 257.589 139.115 257.849 138.886C258.084 138.683 258.423 138.581 258.866 138.581C259.309 138.581 259.634 138.67 259.843 138.848C260.077 139.051 260.312 139.357 260.547 139.763C260.729 140.069 260.898 140.297 261.055 140.45C261.211 140.628 261.433 140.717 261.719 140.717C262.11 140.717 262.384 140.45 262.54 139.916C262.723 139.407 262.814 138.39 262.814 136.865C262.814 135.822 262.775 134.436 262.697 132.707L262.267 119.244C262.214 118.557 262.123 118.087 261.993 117.833C261.863 117.553 261.615 117.375 261.25 117.299C260.885 117.197 260.26 117.146 259.374 117.146C259.27 117.146 259.217 117.07 259.217 116.917C259.217 116.765 259.27 116.688 259.374 116.688C260.416 116.688 261.133 116.574 261.524 116.345C261.915 116.091 262.11 115.633 262.11 114.972C262.058 111.844 262.214 109.454 262.579 107.801C262.97 106.123 263.609 104.941 264.495 104.254C265.407 103.568 266.723 103.225 268.443 103.225C269.434 103.225 270.241 103.428 270.867 103.835C271.518 104.216 271.87 104.674 271.922 105.208C271.922 105.589 271.805 105.882 271.571 106.085C271.336 106.263 271.023 106.352 270.632 106.352C270.241 106.352 269.929 106.25 269.694 106.047C269.46 105.844 269.212 105.526 268.951 105.094C268.665 104.636 268.404 104.305 268.17 104.102C267.935 103.898 267.609 103.797 267.192 103.797C265.264 103.797 264.299 106.581 264.299 112.15C264.299 113.039 264.312 113.713 264.338 114.171L264.417 116.65C267.283 116.65 269.199 116.625 270.163 116.574C271.258 116.574 272.131 116.32 272.782 115.811C273.46 115.277 273.851 114.591 273.955 113.751C273.955 113.65 274.059 113.599 274.268 113.599C274.372 113.599 274.463 113.612 274.542 113.637C274.62 113.662 274.659 113.701 274.659 113.751V116.574C275.675 116.548 277.473 116.459 280.054 116.307C280.158 116.307 280.249 116.345 280.327 116.421C280.405 116.472 280.444 116.548 280.444 116.65C280.392 116.904 280.236 117.184 279.975 117.489C279.741 117.794 279.48 117.922 279.194 117.871C277.395 117.642 275.871 117.515 274.62 117.489L274.581 126.948C274.555 127.991 274.75 128.753 275.167 129.237C275.584 129.694 276.249 129.923 277.161 129.923C277.943 129.923 278.62 129.783 279.194 129.504C279.767 129.198 280.366 128.766 280.992 128.207H281.031Z" fill="#202020"/>
<path d="M257.47 127.966C257.496 127.941 257.535 127.928 257.587 127.928C257.665 127.928 257.743 127.979 257.822 128.081C257.9 128.157 257.926 128.221 257.9 128.272C257.144 129.289 256.44 130.039 255.789 130.522C255.163 131.005 254.525 131.246 253.873 131.246C252.414 131.246 251.684 130.242 251.684 128.233L251.762 123.504C250.902 125.869 249.769 127.776 248.361 129.225C246.98 130.674 245.508 131.399 243.944 131.399C242.954 131.399 242.146 131.068 241.52 130.407C240.921 129.721 240.621 128.64 240.621 127.165C240.621 125.411 241.051 123.644 241.911 121.864C242.797 120.059 243.944 118.584 245.351 117.44C246.759 116.27 248.192 115.685 249.651 115.685C250.199 115.685 250.733 115.774 251.254 115.952C251.801 116.13 252.284 116.397 252.701 116.753C253.118 116.346 253.365 115.901 253.443 115.418C253.469 115.367 253.561 115.342 253.717 115.342C253.899 115.342 253.978 115.367 253.952 115.418L253.873 127.509C253.847 128.983 254.212 129.721 254.968 129.721C255.619 129.721 256.453 129.136 257.47 127.966ZM245.195 129.53C246.263 129.53 247.293 129.034 248.283 128.043C249.273 127.026 250.068 125.78 250.668 124.305C251.293 122.83 251.606 121.444 251.606 120.148C251.606 119.207 251.319 118.457 250.746 117.897C250.199 117.312 249.469 117.02 248.557 117.02C247.514 117.02 246.55 117.389 245.664 118.126C244.778 118.863 244.074 119.881 243.553 121.177C243.032 122.474 242.771 123.923 242.771 125.525C242.771 126.898 242.967 127.916 243.358 128.577C243.775 129.212 244.387 129.53 245.195 129.53Z" fill="#202020"/>
<path d="M235.374 115.817C235.973 115.817 236.546 116.008 237.094 116.389C237.667 116.771 237.954 117.203 237.954 117.686C237.954 118.042 237.823 118.347 237.563 118.602C237.302 118.831 237.003 118.945 236.664 118.945C236.377 118.945 236.142 118.894 235.96 118.792C235.778 118.691 235.582 118.551 235.374 118.373C235.243 118.246 235.1 118.144 234.944 118.068C234.813 117.966 234.657 117.915 234.475 117.915C233.875 117.915 233.289 118.64 232.715 120.089C232.142 121.538 231.66 123.28 231.269 125.314C230.904 127.323 230.709 129.103 230.683 130.654C230.683 130.832 230.565 130.972 230.331 131.074C230.122 131.175 229.823 131.226 229.432 131.226C229.041 131.226 228.78 131.201 228.65 131.15C228.52 131.125 228.441 131.074 228.415 130.997C228.415 130.896 228.428 130.616 228.454 130.158C228.48 129.675 228.493 128.989 228.493 128.099L228.572 121.043C228.572 118.576 228.076 117.343 227.086 117.343C226.304 117.343 225.47 117.801 224.584 118.716L224.506 118.754C224.428 118.754 224.363 118.716 224.311 118.64C224.232 118.564 224.206 118.5 224.232 118.449C224.884 117.635 225.588 117 226.343 116.542C227.125 116.084 227.855 115.856 228.533 115.856C229.262 115.856 229.81 116.212 230.174 116.923C230.565 117.635 230.748 118.983 230.722 120.966V125.391C231.113 122.721 231.712 120.458 232.52 118.602C233.328 116.745 234.279 115.817 235.374 115.817Z" fill="#202020"/>
<path d="M217.261 131.407C215.749 131.407 214.472 131.026 213.43 130.263C212.414 129.5 211.658 128.547 211.163 127.403C210.668 126.233 210.42 125.038 210.42 123.817C210.42 122.165 210.785 120.728 211.514 119.507C212.244 118.287 213.195 117.346 214.368 116.685C215.567 116.024 216.805 115.693 218.082 115.693C219.203 115.693 220.18 115.922 221.014 116.38C221.848 116.812 222.265 117.397 222.265 118.134C222.265 118.439 222.161 118.694 221.952 118.897C221.77 119.075 221.483 119.164 221.092 119.164C220.649 119.164 220.297 119.062 220.037 118.859C219.776 118.656 219.528 118.35 219.294 117.944C218.72 117.003 217.86 116.532 216.714 116.532C215.359 116.532 214.355 117.105 213.704 118.249C213.078 119.368 212.765 120.792 212.765 122.521C212.765 124.631 213.287 126.424 214.329 127.898C215.372 129.348 216.87 130.072 218.825 130.072C220.05 130.072 221.248 129.716 222.421 129.004H222.46C222.538 129.004 222.617 129.055 222.695 129.157C222.799 129.233 222.825 129.31 222.773 129.386C221.939 130.072 221.04 130.581 220.076 130.912C219.137 131.242 218.199 131.407 217.261 131.407Z" fill="#202020"/>
<path d="M196.978 128.002C197.004 127.977 197.043 127.964 197.095 127.964C197.173 127.964 197.252 128.015 197.33 128.117C197.434 128.193 197.473 128.257 197.447 128.307C196.613 129.35 195.883 130.113 195.258 130.596C194.658 131.054 194.02 131.282 193.342 131.282C192.613 131.282 192.052 131.028 191.661 130.52C191.297 129.986 191.127 129.236 191.153 128.269L191.231 123.921C190.424 126.235 189.407 128.066 188.182 129.414C186.983 130.761 185.628 131.435 184.117 131.435C182.892 131.435 181.836 130.99 180.95 130.1C180.09 129.21 179.66 127.862 179.66 126.057C179.66 124.252 180.103 122.561 180.989 120.984C181.875 119.383 183.035 118.111 184.468 117.17C185.928 116.204 187.439 115.721 189.003 115.721C189.889 115.721 190.671 115.886 191.349 116.217L191.466 107.33C191.518 106.135 191.101 105.537 190.215 105.537C189.72 105.537 189.055 105.728 188.221 106.11C188.195 106.135 188.156 106.148 188.104 106.148C188 106.148 187.922 106.084 187.869 105.957C187.843 105.83 187.883 105.741 187.987 105.69L193.108 103.287H193.186C193.264 103.287 193.355 103.325 193.46 103.402C193.564 103.478 193.616 103.541 193.616 103.592L193.381 127.545C193.381 128.307 193.46 128.867 193.616 129.223C193.798 129.579 194.085 129.757 194.476 129.757C195.075 129.757 195.909 129.172 196.978 128.002ZM185.133 129.566C186.332 129.566 187.387 129.045 188.3 128.002C189.238 126.934 189.967 125.676 190.489 124.226C191.01 122.752 191.271 121.455 191.271 120.336C191.271 119.268 190.971 118.454 190.371 117.895C189.772 117.336 188.912 117.056 187.791 117.056C186.645 117.056 185.615 117.361 184.703 117.971C183.791 118.556 183.074 119.421 182.553 120.565C182.032 121.684 181.771 123.019 181.771 124.57C181.797 126.248 182.11 127.506 182.709 128.346C183.309 129.159 184.117 129.566 185.133 129.566Z" fill="#202020"/>
<path d="M167.902 131.445C166.546 131.445 165.361 131.128 164.344 130.492C163.354 129.831 162.585 128.941 162.038 127.822C161.49 126.703 161.217 125.445 161.217 124.046C161.217 122.47 161.543 121.046 162.194 119.774C162.846 118.503 163.745 117.511 164.891 116.799C166.064 116.062 167.393 115.693 168.879 115.693C170.86 115.693 172.462 116.342 173.687 117.639C174.938 118.91 175.564 120.677 175.564 122.94C175.564 124.669 175.212 126.182 174.508 127.479C173.804 128.776 172.866 129.767 171.693 130.454C170.521 131.115 169.257 131.445 167.902 131.445ZM169.074 130.492C170.351 130.492 171.407 129.971 172.241 128.928C173.075 127.886 173.492 126.474 173.492 124.695C173.492 123.322 173.244 122.012 172.749 120.766C172.28 119.52 171.602 118.516 170.716 117.753C169.856 116.99 168.879 116.609 167.784 116.609C166.507 116.609 165.439 117.117 164.579 118.134C163.719 119.151 163.289 120.55 163.289 122.33C163.289 123.677 163.536 124.987 164.031 126.258C164.527 127.504 165.217 128.521 166.103 129.31C166.989 130.098 167.98 130.492 169.074 130.492Z" fill="#202020"/>
<path d="M149.655 131.445C148.3 131.445 147.114 131.128 146.098 130.492C145.108 129.831 144.339 128.941 143.792 127.822C143.244 126.703 142.971 125.445 142.971 124.046C142.971 122.47 143.296 121.046 143.948 119.774C144.6 118.503 145.499 117.511 146.645 116.799C147.818 116.062 149.147 115.693 150.633 115.693C152.613 115.693 154.216 116.342 155.441 117.639C156.692 118.91 157.318 120.677 157.318 122.94C157.318 124.669 156.966 126.182 156.262 127.479C155.558 128.776 154.62 129.767 153.447 130.454C152.275 131.115 151.011 131.445 149.655 131.445ZM150.828 130.492C152.105 130.492 153.161 129.971 153.995 128.928C154.829 127.886 155.246 126.474 155.246 124.695C155.246 123.322 154.998 122.012 154.503 120.766C154.034 119.52 153.356 118.516 152.47 117.753C151.61 116.99 150.633 116.609 149.538 116.609C148.261 116.609 147.193 117.117 146.333 118.134C145.473 119.151 145.043 120.55 145.043 122.33C145.043 123.677 145.29 124.987 145.785 126.258C146.281 127.504 146.971 128.521 147.857 129.31C148.743 130.098 149.734 130.492 150.828 130.492Z" fill="#202020"/>
<path d="M142.614 107.07C142.745 107.07 142.81 107.147 142.81 107.299C142.81 107.452 142.745 107.528 142.614 107.528C141.754 107.528 141.025 107.731 140.425 108.138C139.826 108.545 139.305 109.321 138.861 110.465L130.926 130.87C130.926 130.972 130.795 131.023 130.535 131.023C130.274 131.023 130.131 130.972 130.105 130.87L125.297 120.038L121.114 130.87C121.088 130.972 120.931 131.023 120.645 131.023C120.358 131.023 120.202 130.972 120.175 130.87L111.028 110.236C110.637 109.244 110.207 108.545 109.738 108.138C109.269 107.731 108.656 107.528 107.901 107.528C107.796 107.528 107.744 107.452 107.744 107.299C107.718 107.147 107.757 107.07 107.861 107.07L109.503 107.108C110.285 107.159 110.832 107.185 111.145 107.185C111.875 107.185 112.735 107.159 113.725 107.108L115.289 107.07C115.393 107.07 115.445 107.147 115.445 107.299C115.445 107.452 115.393 107.528 115.289 107.528C114.611 107.528 114.09 107.617 113.725 107.795C113.386 107.973 113.217 108.291 113.217 108.749C113.217 109.054 113.308 109.422 113.491 109.855L121.544 127.781L124.827 119.008L120.918 110.236C120.475 109.219 120.032 108.52 119.589 108.138C119.146 107.731 118.56 107.528 117.83 107.528C117.726 107.528 117.674 107.452 117.674 107.299C117.674 107.147 117.713 107.07 117.791 107.07L119.394 107.108C120.123 107.159 120.671 107.185 121.035 107.185C121.583 107.185 122.221 107.159 122.951 107.108L123.967 107.07C124.098 107.07 124.163 107.147 124.163 107.299C124.163 107.452 124.098 107.528 123.967 107.528C123.524 107.528 123.212 107.566 123.029 107.642C122.847 107.693 122.756 107.833 122.756 108.062C122.756 108.316 122.977 108.914 123.42 109.855L126.235 116.186L128.463 110.236C128.75 109.524 128.893 108.99 128.893 108.634C128.893 107.897 128.32 107.528 127.173 107.528C127.095 107.528 127.043 107.452 127.017 107.299C127.017 107.147 127.069 107.07 127.173 107.07L128.228 107.108C128.75 107.159 129.245 107.185 129.714 107.185C130.157 107.185 130.717 107.159 131.395 107.108L132.919 107.07C133.024 107.07 133.076 107.147 133.076 107.299C133.102 107.452 133.063 107.528 132.959 107.528C132.125 107.528 131.421 107.731 130.848 108.138C130.3 108.545 129.805 109.321 129.362 110.465L126.743 117.292L131.395 127.781L138.041 110.236C138.197 109.778 138.275 109.397 138.275 109.092C138.275 108.558 138.054 108.164 137.611 107.909C137.167 107.655 136.451 107.528 135.46 107.528C135.356 107.528 135.304 107.452 135.304 107.299C135.304 107.147 135.356 107.07 135.46 107.07L136.946 107.108C137.78 107.159 138.549 107.185 139.252 107.185C139.722 107.185 140.295 107.159 140.972 107.108L142.614 107.07Z" fill="#202020"/>
<path d="M453.631 117.988H529.59" stroke="#202020" stroke-width="0.330831" stroke-linecap="round"/>
<path d="M512.792 58.3767C518.258 58.3767 522.572 56.5524 525.737 52.9039C528.997 49.2553 530.627 44.297 530.627 38.029V0H542.565V38.45C542.565 48.1795 539.832 55.7572 534.366 61.1832C528.901 66.6093 521.709 69.3223 512.792 69.3223C503.875 69.3223 496.683 66.6093 491.218 61.1832C485.752 55.7572 483.02 48.1795 483.02 38.45V0H494.813V38.029C494.813 44.3906 496.444 49.3489 499.704 52.9039C502.868 56.5524 507.231 58.3767 512.792 58.3767Z" fill="#202020"/>
<path d="M398.216 53.0442L391.169 68.6207H378.512L409.579 0H422.236L453.159 68.6207H440.502L433.454 53.0442H398.216ZM428.708 42.2389L415.907 14.0329L403.106 42.2389H428.708Z" fill="#202020"/>
<path d="M335.951 0H347.745V68.6207H334.944L295.104 18.5234V68.6207H283.166V0H295.104L335.951 51.2199V0Z" fill="#202020"/>
<path d="M197.499 53.0442L190.452 68.6207H177.795L208.862 0H221.519L252.442 68.6207H239.785L232.738 53.0442H197.499ZM227.991 42.2389L215.19 14.0329L202.39 42.2389H227.991Z" fill="#202020"/>
<path d="M88.4453 68.6207V0H100.383V29.7497H135.19V0H147.127V68.6207H135.19V40.555H100.383V68.6207H88.4453Z" fill="#202020"/>
<path d="M33.2245 10.5246V68.6207H21.2867V10.5246H0V0H54.5111V10.5246H33.2245Z" fill="#202020"/>
<rect x="253.781" y="181.903" width="35" height="55" rx="17.5" stroke="#202020"/>
<path d="M265.211 211.833L271.281 217.903L277.351 211.833" stroke="#292D32" stroke-width="1.5" stroke-miterlimit="10" stroke-linecap="round" stroke-linejoin="round"/>
<path d="M271.281 200.903V217.733" stroke="#292D32" stroke-width="1.5" stroke-miterlimit="10" stroke-linecap="round" stroke-linejoin="round"/>
</svg>
