<svg width="85" height="23" viewBox="0 0 85 23" fill="none" xmlns="http://www.w3.org/2000/svg">
<path d="M1.7002 18.4844H13.6002" stroke="#202020" stroke-width="0.0555725" stroke-linecap="round"/>
<path d="M67.8095 20.0471C67.8136 20.0432 67.8197 20.0412 67.8279 20.0412C67.8401 20.0412 67.8524 20.0491 67.8646 20.0651C67.8769 20.077 67.881 20.087 67.8769 20.095C67.7585 20.2543 67.6482 20.3718 67.5462 20.4475C67.4482 20.5232 67.3481 20.561 67.2461 20.561C67.0174 20.561 66.9031 20.4037 66.9031 20.089L66.9154 19.348C66.7806 19.7185 66.603 20.0173 66.3825 20.2443C66.1661 20.4714 65.9355 20.5849 65.6905 20.5849C65.5353 20.5849 65.4088 20.5331 65.3108 20.4296C65.2169 20.322 65.1699 20.1527 65.1699 19.9217C65.1699 19.6468 65.2373 19.37 65.372 19.0911C65.5108 18.8083 65.6905 18.5772 65.911 18.398C66.1314 18.2147 66.356 18.1231 66.5846 18.1231C66.6704 18.1231 66.7541 18.1371 66.8357 18.1649C66.9215 18.1928 66.997 18.2347 67.0623 18.2904C67.1277 18.2267 67.1665 18.157 67.1787 18.0813C67.1828 18.0733 67.1971 18.0693 67.2216 18.0693C67.2501 18.0693 67.2624 18.0733 67.2583 18.0813L67.2461 19.9754C67.242 20.2065 67.2991 20.322 67.4175 20.322C67.5196 20.322 67.6503 20.2304 67.8095 20.0471ZM65.8865 20.2921C66.0539 20.2921 66.2151 20.2145 66.3703 20.0591C66.5254 19.8998 66.65 19.7046 66.7439 19.4735C66.8419 19.2425 66.8909 19.0254 66.8909 18.8222C66.8909 18.6748 66.8459 18.5573 66.7561 18.4697C66.6704 18.3781 66.5561 18.3322 66.4132 18.3322C66.2498 18.3322 66.0988 18.39 65.96 18.5055C65.8211 18.6211 65.7109 18.7804 65.6292 18.9836C65.5476 19.1867 65.5068 19.4138 65.5068 19.6647C65.5068 19.8798 65.5374 20.0392 65.5986 20.1428C65.6639 20.2423 65.7599 20.2921 65.8865 20.2921Z" fill="#202020"/>
<path d="M64.6714 20.0429C64.6877 20.0429 64.702 20.0508 64.7142 20.0668C64.7306 20.0787 64.7367 20.0887 64.7326 20.0967C64.602 20.26 64.4876 20.3795 64.3897 20.4552C64.2958 20.5269 64.1957 20.5627 64.0896 20.5627C63.8609 20.5627 63.7466 20.4054 63.7466 20.0907L63.7527 18.7821C63.7527 18.6387 63.7262 18.5411 63.6731 18.4893C63.62 18.4335 63.5159 18.3997 63.3608 18.3877C63.2056 18.3718 62.9178 18.3638 62.4972 18.3638L62.5707 20.6344C62.5748 20.7021 62.5769 20.7958 62.5769 20.9153C62.5769 21.226 62.5544 21.471 62.5095 21.6502C62.4646 21.8295 62.3931 21.957 62.2951 22.0326C62.1972 22.1123 62.0645 22.1521 61.8971 22.1521C61.746 22.1521 61.6276 22.1263 61.5419 22.0745C61.4602 22.0267 61.4173 21.9669 61.4132 21.8952C61.4051 21.8394 61.4194 21.7936 61.4561 21.7578C61.4969 21.7259 61.5521 21.71 61.6215 21.71C61.6909 21.71 61.7419 21.7239 61.7746 21.7518C61.8113 21.7837 61.8481 21.8315 61.8848 21.8952C61.9134 21.943 61.9399 21.9789 61.9644 22.0028C61.9889 22.0306 62.0236 22.0446 62.0685 22.0446C62.1298 22.0446 62.1727 22.0028 62.1972 21.9191C62.2257 21.8394 62.24 21.6801 62.24 21.4411C62.24 21.2778 62.2339 21.0607 62.2216 20.7898L62.1543 18.6805V18.6686L62.1482 18.6805C62.14 18.5969 62.1257 18.5371 62.1053 18.5013C62.089 18.4654 62.0583 18.4415 62.0134 18.4296C61.9685 18.4176 61.893 18.4096 61.7868 18.4056C61.5745 18.3937 61.254 18.3877 60.8253 18.3877L60.8988 20.6344C60.9029 20.7021 60.9049 20.7958 60.9049 20.9153C60.9049 21.226 60.8825 21.471 60.8376 21.6502C60.7926 21.8295 60.7212 21.957 60.6232 22.0326C60.5252 22.1123 60.3925 22.1521 60.2251 22.1521C60.0741 22.1521 59.9577 22.1263 59.876 22.0745C59.7903 22.0267 59.7454 21.9669 59.7413 21.8952C59.7331 21.8394 59.7495 21.7936 59.7903 21.7578C59.827 21.7259 59.8801 21.71 59.9495 21.71C60.0189 21.71 60.07 21.7239 60.1026 21.7518C60.1394 21.7837 60.1761 21.8315 60.2129 21.8952C60.2415 21.943 60.268 21.9789 60.2925 22.0028C60.317 22.0306 60.3517 22.0446 60.3966 22.0446C60.4578 22.0446 60.5007 22.0028 60.5252 21.9191C60.5538 21.8394 60.5681 21.6801 60.5681 21.4411C60.5681 21.2778 60.562 21.0607 60.5497 20.7898L60.4823 18.6805C60.4742 18.5769 60.4599 18.5032 60.4395 18.4594C60.4191 18.4156 60.3803 18.3877 60.3231 18.3758C60.27 18.3598 60.1761 18.3519 60.0414 18.3519C60.0251 18.3519 60.0149 18.3399 60.0108 18.316C60.0108 18.2921 60.0169 18.2802 60.0291 18.2802C60.1925 18.2802 60.3047 18.2622 60.366 18.2264C60.4272 18.1866 60.4578 18.1149 60.4578 18.0113C60.4742 17.4735 60.5803 17.0911 60.7763 16.864C60.9723 16.633 61.256 16.5175 61.6276 16.5175C61.8971 16.5175 62.1461 16.5752 62.3748 16.6907C62.5667 16.3442 62.8749 16.1709 63.2995 16.1709C63.52 16.1709 63.6915 16.2107 63.814 16.2904C63.9405 16.3661 64.0038 16.4577 64.0038 16.5653C64.0038 16.6768 63.9426 16.7326 63.8201 16.7326C63.7589 16.7326 63.7078 16.7146 63.667 16.6788C63.6302 16.6429 63.5894 16.5912 63.5445 16.5234C63.4833 16.4358 63.4261 16.3701 63.373 16.3263C63.324 16.2824 63.2526 16.2605 63.1587 16.2605C62.9423 16.2605 62.7728 16.382 62.6504 16.625C62.5319 16.868 62.4727 17.2225 62.4727 17.6886L62.4789 17.8858L62.4911 18.2503C62.8586 18.2463 63.2485 18.2344 63.6609 18.2144C63.8405 18.2065 63.9507 18.2025 63.9916 18.2025C64.0365 18.2025 64.0651 18.2105 64.0773 18.2264C64.0896 18.2423 64.0957 18.2802 64.0957 18.3399V18.5789V18.7642V19.9771C64.0957 20.0967 64.1079 20.1843 64.1324 20.2401C64.161 20.2958 64.2059 20.3237 64.2672 20.3237C64.3692 20.3237 64.4999 20.2321 64.6591 20.0488L64.6714 20.0429ZM60.8192 18.2682C61.3173 18.2682 61.6378 18.2662 61.7807 18.2622C61.8991 18.2543 61.9869 18.2324 62.044 18.1965C62.1012 18.1567 62.1298 18.0949 62.1298 18.0113C62.1298 17.6289 62.1645 17.3082 62.2339 17.0493C62.1441 16.9218 62.0318 16.8162 61.8971 16.7326C61.7623 16.6489 61.6255 16.6071 61.4867 16.6071C61.2663 16.6071 61.0968 16.7166 60.9784 16.9357C60.8641 17.1508 60.8069 17.4675 60.8069 17.8858L60.8192 18.2682Z" fill="#202020"/>
<path d="M59.7304 20.0471C59.7345 20.0432 59.7406 20.0412 59.7488 20.0412C59.761 20.0412 59.7733 20.0491 59.7855 20.0651C59.7978 20.077 59.8018 20.087 59.7978 20.095C59.6794 20.2543 59.5691 20.3718 59.4671 20.4475C59.3691 20.5232 59.269 20.561 59.167 20.561C58.9383 20.561 58.824 20.4037 58.824 20.089L58.8362 19.348C58.7015 19.7185 58.5239 20.0173 58.3034 20.2443C58.087 20.4714 57.8564 20.5849 57.6114 20.5849C57.4562 20.5849 57.3297 20.5331 57.2317 20.4296C57.1378 20.322 57.0908 20.1527 57.0908 19.9217C57.0908 19.6468 57.1582 19.37 57.2929 19.0911C57.4317 18.8083 57.6114 18.5772 57.8319 18.398C58.0523 18.2147 58.2769 18.1231 58.5055 18.1231C58.5913 18.1231 58.675 18.1371 58.7566 18.1649C58.8424 18.1928 58.9179 18.2347 58.9832 18.2904C59.0486 18.2267 59.0873 18.157 59.0996 18.0813C59.1037 18.0733 59.118 18.0693 59.1425 18.0693C59.171 18.0693 59.1833 18.0733 59.1792 18.0813L59.167 19.9754C59.1629 20.2065 59.22 20.322 59.3384 20.322C59.4405 20.322 59.5712 20.2304 59.7304 20.0471ZM57.8074 20.2921C57.9748 20.2921 58.136 20.2145 58.2912 20.0591C58.4463 19.8998 58.5709 19.7046 58.6648 19.4735C58.7628 19.2425 58.8118 19.0254 58.8118 18.8222C58.8118 18.6748 58.7668 18.5573 58.677 18.4697C58.5913 18.3781 58.477 18.3322 58.3341 18.3322C58.1707 18.3322 58.0197 18.39 57.8809 18.5055C57.742 18.6211 57.6318 18.7804 57.5501 18.9836C57.4685 19.1867 57.4277 19.4138 57.4277 19.6647C57.4277 19.8798 57.4583 20.0392 57.5195 20.1428C57.5848 20.2423 57.6808 20.2921 57.8074 20.2921Z" fill="#202020"/>
<path d="M56.7051 20.4376C56.7214 20.4376 56.7296 20.4496 56.7296 20.4735C56.7296 20.4974 56.7214 20.5093 56.7051 20.5093H55.9885C55.8824 20.5093 55.6884 20.338 55.4067 19.9954C55.1291 19.6528 54.7943 19.1728 54.4023 18.5554C54.2758 18.5912 54.141 18.6092 53.9981 18.6092C53.9369 18.6092 53.8654 18.6052 53.7838 18.5972L53.7715 20.0253C53.7756 20.1488 53.7899 20.2384 53.8144 20.2942C53.8389 20.35 53.8838 20.3878 53.9491 20.4077C54.0185 20.4276 54.1288 20.4376 54.2799 20.4376C54.2962 20.4376 54.3044 20.4496 54.3044 20.4735C54.3044 20.4974 54.2982 20.5093 54.286 20.5093C54.1594 20.5093 54.0594 20.5073 53.9859 20.5033L53.5694 20.4974L53.1469 20.5033C53.0734 20.5073 52.9733 20.5093 52.8468 20.5093C52.8304 20.5093 52.8223 20.4974 52.8223 20.4735C52.8223 20.4496 52.8304 20.4376 52.8468 20.4376C53.0019 20.4376 53.1162 20.4276 53.1897 20.4077C53.2632 20.3838 53.3143 20.344 53.3428 20.2882C53.3714 20.2325 53.3877 20.1448 53.3918 20.0253V17.2588C53.3877 17.1393 53.3735 17.0516 53.349 16.9958C53.3245 16.9401 53.2755 16.9022 53.202 16.8823C53.1326 16.8584 53.0203 16.8465 52.8651 16.8465C52.8488 16.8465 52.8406 16.8345 52.8406 16.8106C52.8406 16.7867 52.8488 16.7748 52.8651 16.7748L53.1652 16.7807C53.3367 16.7887 53.4735 16.7927 53.5756 16.7927C53.6613 16.7927 53.7368 16.7907 53.8022 16.7867C53.8716 16.7827 53.9267 16.7787 53.9675 16.7748C54.0859 16.7628 54.19 16.7568 54.2799 16.7568C54.6187 16.7568 54.878 16.8226 55.0576 16.954C55.2373 17.0855 55.3271 17.2687 55.3271 17.5037C55.3271 17.691 55.27 17.8682 55.1556 18.0355C55.0454 18.1989 54.8943 18.3323 54.7024 18.4359C55.0495 18.9458 55.3373 19.3441 55.566 19.6309C55.7987 19.9178 56.0049 20.1249 56.1845 20.2524C56.3642 20.3759 56.5377 20.4376 56.7051 20.4376ZM53.7715 18.4538C53.8818 18.4658 53.992 18.4717 54.1022 18.4717C54.3881 18.4717 54.5942 18.412 54.7208 18.2925C54.8474 18.173 54.9107 17.9778 54.9107 17.7069C54.9107 17.4042 54.8433 17.1851 54.7086 17.0496C54.5738 16.9142 54.3921 16.8465 54.1635 16.8465C54.0492 16.8465 53.9675 16.8544 53.9185 16.8704C53.8695 16.8823 53.8328 16.9182 53.8083 16.9779C53.7879 17.0337 53.7756 17.1313 53.7715 17.2707V18.4538Z" fill="#202020"/>
<path d="M50.4812 18.2393C50.5832 18.2393 50.6343 18.3011 50.6343 18.4246C50.6343 18.5241 50.6057 18.6217 50.5485 18.7173C50.4954 18.809 50.422 18.8846 50.328 18.9444C50.2341 19.0042 50.1341 19.034 50.028 19.034C49.9136 19.034 49.7666 18.9922 49.587 18.9085C49.5135 19.4543 49.3257 19.8706 49.0236 20.1574C48.7255 20.4402 48.354 20.5816 47.9089 20.5816C47.6313 20.5816 47.3823 20.5179 47.1618 20.3904C46.9454 20.259 46.7759 20.0857 46.6535 19.8706C46.531 19.6555 46.4697 19.4224 46.4697 19.1715C46.4697 19.0639 46.482 18.9563 46.5065 18.8488C46.5555 18.6377 46.6494 18.4465 46.7882 18.2752C46.927 18.1039 47.0903 17.9704 47.2781 17.8748C47.4659 17.7792 47.6558 17.7314 47.8477 17.7314C48.0518 17.7314 48.2192 17.7872 48.3499 17.8987C48.5949 17.6318 48.7173 17.3988 48.7173 17.1996C48.7173 17.1239 48.7051 17.0662 48.6806 17.0263C48.6561 16.9825 48.6214 16.9427 48.5765 16.9068C48.5438 16.875 48.5193 16.8471 48.503 16.8232C48.4867 16.7993 48.4785 16.7654 48.4785 16.7216C48.4785 16.6618 48.4969 16.614 48.5336 16.5782C48.5704 16.5423 48.6173 16.5244 48.6745 16.5244C48.7643 16.5244 48.8378 16.5642 48.895 16.6439C48.9521 16.7236 48.9807 16.8292 48.9807 16.9606C48.9807 17.1837 48.895 17.4107 48.7235 17.6418C48.552 17.8728 48.3458 18.0899 48.1049 18.2931C47.864 18.4923 47.5619 18.7253 47.1985 18.9922L46.8433 19.2611C46.8841 19.4762 46.9678 19.6674 47.0944 19.8347C47.221 19.998 47.372 20.1255 47.5476 20.2171C47.7273 20.3048 47.9151 20.3486 48.111 20.3486C48.4826 20.3486 48.7908 20.2211 49.0358 19.9662C49.2849 19.7112 49.4359 19.3447 49.489 18.8667L49.3727 18.807C49.2012 18.7193 49.0644 18.6556 48.9623 18.6158C48.8603 18.5719 48.7623 18.55 48.6684 18.55C48.6112 18.55 48.5642 18.562 48.5275 18.5859C48.4948 18.6098 48.4785 18.6397 48.4785 18.6755C48.4785 18.7233 48.4948 18.7791 48.5275 18.8428C48.5602 18.9145 48.5765 18.9663 48.5765 18.9982C48.5765 19.034 48.5642 19.0679 48.5397 19.0998C48.5152 19.1276 48.4785 19.1416 48.4295 19.1416C48.3805 19.1416 48.3397 19.1276 48.307 19.0998C48.2784 19.0679 48.2642 19.0181 48.2642 18.9504C48.2642 18.8468 48.2968 18.7472 48.3621 18.6516C48.4315 18.556 48.5193 18.4803 48.6255 18.4246C48.7357 18.3648 48.848 18.3349 48.9623 18.3349C49.0644 18.3349 49.1685 18.3568 49.2747 18.4006C49.3849 18.4405 49.5196 18.5002 49.6789 18.5799C49.8095 18.6476 49.9218 18.7014 50.0157 18.7412C50.1096 18.7771 50.1954 18.795 50.2729 18.795C50.326 18.795 50.3689 18.7851 50.4015 18.7651C50.4383 18.7412 50.4567 18.7134 50.4567 18.6815C50.4567 18.6456 50.4362 18.5998 50.3954 18.5441C50.3709 18.5122 50.3525 18.4843 50.3403 18.4604C50.328 18.4365 50.3219 18.4086 50.3219 18.3767C50.3219 18.2851 50.375 18.2393 50.4812 18.2393ZM46.8433 18.6576C46.8229 18.7851 46.8127 18.8926 46.8127 18.9803C46.8127 19.0241 46.8168 19.0858 46.8249 19.1655C46.9352 19.0778 47.0495 18.9902 47.1679 18.9026C47.5394 18.6237 47.8293 18.3927 48.0375 18.2094C47.9355 17.9983 47.7681 17.8928 47.5354 17.8928C47.3761 17.8928 47.2332 17.9664 47.1067 18.1138C46.9842 18.2572 46.8964 18.4385 46.8433 18.6576Z" fill="#202020"/>
<path d="M44.0275 20.0847C44.0397 20.0847 44.054 20.0927 44.0704 20.1086C44.0867 20.1206 44.0887 20.1305 44.0765 20.1385C43.9091 20.2938 43.756 20.4074 43.6172 20.4791C43.4824 20.5468 43.3477 20.5806 43.2129 20.5806C43.0537 20.5806 42.921 20.5408 42.8149 20.4611C42.7128 20.3815 42.6638 20.252 42.6679 20.0727L42.674 18.6805C42.674 18.5889 42.6618 18.5252 42.6373 18.4893C42.6128 18.4535 42.5781 18.4315 42.5331 18.4236C42.4882 18.4116 42.4045 18.4037 42.2821 18.3997L41.4308 18.3817L41.5043 20.6344C41.5083 20.7021 41.5104 20.7958 41.5104 20.9153C41.5104 21.226 41.4879 21.471 41.443 21.6502C41.3981 21.8295 41.3267 21.957 41.2287 22.0326C41.1307 22.1123 40.998 22.1521 40.8306 22.1521C40.6795 22.1521 40.5632 22.1263 40.4815 22.0745C40.3958 22.0267 40.3509 21.9669 40.3468 21.8952C40.3386 21.8394 40.3549 21.7936 40.3958 21.7578C40.4325 21.7259 40.4856 21.71 40.555 21.71C40.6244 21.71 40.6754 21.7239 40.7081 21.7518C40.7448 21.7837 40.7816 21.8315 40.8183 21.8952C40.8469 21.943 40.8735 21.9789 40.898 22.0028C40.9225 22.0306 40.9572 22.0446 41.0021 22.0446C41.0633 22.0446 41.1062 22.0028 41.1307 21.9191C41.1593 21.8394 41.1735 21.6801 41.1735 21.4411C41.1735 21.2778 41.1674 21.0607 41.1552 20.7898L41.0878 18.6805C41.0796 18.573 41.0654 18.4993 41.0449 18.4594C41.0245 18.4156 40.9857 18.3877 40.9286 18.3758C40.8714 18.3598 40.7734 18.3519 40.6346 18.3519C40.6183 18.3519 40.6101 18.3399 40.6101 18.316C40.6101 18.2921 40.6183 18.2802 40.6346 18.2802C40.7979 18.2802 40.9102 18.2622 40.9714 18.2264C41.0327 18.1866 41.0633 18.1149 41.0633 18.0113C41.0551 17.5213 41.0796 17.1469 41.1368 16.8879C41.198 16.625 41.2981 16.4398 41.4369 16.3322C41.5798 16.2247 41.786 16.1709 42.0555 16.1709C42.2106 16.1709 42.3372 16.2028 42.4352 16.2665C42.5372 16.3263 42.5924 16.398 42.6005 16.4816C42.6005 16.5414 42.5821 16.5872 42.5454 16.619C42.5087 16.6469 42.4597 16.6609 42.3984 16.6609C42.3372 16.6609 42.2882 16.6449 42.2514 16.6131C42.2147 16.5812 42.1759 16.5314 42.1351 16.4637C42.0902 16.392 42.0493 16.3402 42.0126 16.3083C41.9758 16.2765 41.9248 16.2605 41.8595 16.2605C41.5573 16.2605 41.4063 16.6967 41.4063 17.5691C41.4063 17.7085 41.4083 17.8141 41.4124 17.8858L41.4246 18.2742C41.8738 18.2742 42.1739 18.2702 42.3249 18.2622C42.4964 18.2622 42.6332 18.2224 42.7353 18.1427C42.8414 18.0591 42.9026 17.9515 42.919 17.8201C42.919 17.8041 42.9353 17.7962 42.968 17.7962C42.9843 17.7962 42.9986 17.7982 43.0108 17.8021C43.0231 17.8061 43.0292 17.8121 43.0292 17.8201V18.2622C43.1885 18.2583 43.4702 18.2443 43.8744 18.2204C43.8907 18.2204 43.905 18.2264 43.9172 18.2383C43.9295 18.2463 43.9356 18.2583 43.9356 18.2742C43.9275 18.314 43.903 18.3578 43.8621 18.4056C43.8254 18.4535 43.7846 18.4734 43.7396 18.4654C43.4579 18.4296 43.2191 18.4096 43.0231 18.4056L43.017 19.8875C43.0129 20.0508 43.0435 20.1703 43.1088 20.246C43.1742 20.3177 43.2783 20.3536 43.4212 20.3536C43.5437 20.3536 43.6498 20.3317 43.7396 20.2879C43.8295 20.2401 43.9234 20.1723 44.0214 20.0847H44.0275Z" fill="#202020"/>
<path d="M40.3368 20.0471C40.3409 20.0432 40.3471 20.0412 40.3552 20.0412C40.3675 20.0412 40.3797 20.0491 40.392 20.0651C40.4042 20.077 40.4083 20.087 40.4042 20.095C40.2858 20.2543 40.1756 20.3718 40.0735 20.4475C39.9755 20.5232 39.8755 20.561 39.7734 20.561C39.5448 20.561 39.4304 20.4037 39.4304 20.089L39.4427 19.348C39.308 19.7185 39.1304 20.0173 38.9099 20.2443C38.6935 20.4714 38.4628 20.5849 38.2178 20.5849C38.0627 20.5849 37.9361 20.5331 37.8381 20.4296C37.7442 20.322 37.6973 20.1527 37.6973 19.9217C37.6973 19.6468 37.7646 19.37 37.8994 19.0911C38.0382 18.8083 38.2178 18.5772 38.4383 18.398C38.6588 18.2147 38.8833 18.1231 39.112 18.1231C39.1977 18.1231 39.2814 18.1371 39.3631 18.1649C39.4488 18.1928 39.5244 18.2347 39.5897 18.2904C39.655 18.2267 39.6938 18.157 39.706 18.0813C39.7101 18.0733 39.7244 18.0693 39.7489 18.0693C39.7775 18.0693 39.7897 18.0733 39.7857 18.0813L39.7734 19.9754C39.7693 20.2065 39.8265 20.322 39.9449 20.322C40.047 20.322 40.1776 20.2304 40.3368 20.0471ZM38.4138 20.2921C38.5812 20.2921 38.7425 20.2145 38.8976 20.0591C39.0528 19.8998 39.1773 19.7046 39.2712 19.4735C39.3692 19.2425 39.4182 19.0254 39.4182 18.8222C39.4182 18.6748 39.3733 18.5573 39.2835 18.4697C39.1977 18.3781 39.0834 18.3322 38.9405 18.3322C38.7772 18.3322 38.6261 18.39 38.4873 18.5055C38.3485 18.6211 38.2382 18.7804 38.1566 18.9836C38.0749 19.1867 38.0341 19.4138 38.0341 19.6647C38.0341 19.8798 38.0647 20.0392 38.126 20.1428C38.1913 20.2423 38.2872 20.2921 38.4138 20.2921Z" fill="#202020"/>
<path d="M36.8749 18.1436C36.9688 18.1436 37.0586 18.1734 37.1444 18.2332C37.2342 18.2929 37.2791 18.3607 37.2791 18.4363C37.2791 18.4921 37.2587 18.5399 37.2179 18.5797C37.177 18.6156 37.1301 18.6335 37.077 18.6335C37.0321 18.6335 36.9953 18.6256 36.9668 18.6096C36.9382 18.5937 36.9076 18.5718 36.8749 18.5439C36.8545 18.524 36.832 18.508 36.8075 18.4961C36.7871 18.4802 36.7626 18.4722 36.734 18.4722C36.6401 18.4722 36.5483 18.5857 36.4584 18.8128C36.3686 19.0398 36.2931 19.3127 36.2318 19.6314C36.1747 19.9461 36.1441 20.2249 36.14 20.4679C36.14 20.4958 36.1216 20.5177 36.0849 20.5337C36.0522 20.5496 36.0052 20.5576 35.944 20.5576C35.8828 20.5576 35.8419 20.5536 35.8215 20.5456C35.8011 20.5416 35.7888 20.5337 35.7848 20.5217C35.7848 20.5058 35.7868 20.462 35.7909 20.3903C35.795 20.3146 35.797 20.207 35.797 20.0676L35.8093 18.9622C35.8093 18.5758 35.7317 18.3826 35.5765 18.3826C35.454 18.3826 35.3234 18.4543 35.1846 18.5977L35.1723 18.6037C35.1601 18.6037 35.1499 18.5977 35.1417 18.5857C35.1295 18.5738 35.1254 18.5638 35.1295 18.5558C35.2315 18.4284 35.3418 18.3288 35.4602 18.2571C35.5827 18.1854 35.697 18.1495 35.8031 18.1495C35.9175 18.1495 36.0032 18.2053 36.0604 18.3168C36.1216 18.4284 36.1502 18.6395 36.1461 18.9502V19.6433C36.2073 19.2251 36.3012 18.8705 36.4278 18.5797C36.5544 18.289 36.7034 18.1436 36.8749 18.1436Z" fill="#202020"/>
<path d="M34.0376 20.5858C33.8008 20.5858 33.6007 20.5261 33.4374 20.4066C33.2782 20.2871 33.1598 20.1377 33.0822 19.9584C33.0046 19.7752 32.9658 19.588 32.9658 19.3968C32.9658 19.1378 33.023 18.9128 33.1373 18.7216C33.2516 18.5303 33.4006 18.383 33.5844 18.2794C33.7722 18.1758 33.9661 18.124 34.1662 18.124C34.3418 18.124 34.4949 18.1599 34.6255 18.2316C34.7562 18.2993 34.8215 18.3909 34.8215 18.5064C34.8215 18.5542 34.8052 18.5941 34.7725 18.6259C34.7439 18.6538 34.699 18.6678 34.6378 18.6678C34.5684 18.6678 34.5132 18.6518 34.4724 18.62C34.4316 18.5881 34.3928 18.5403 34.356 18.4766C34.2662 18.3292 34.1315 18.2555 33.9518 18.2555C33.7395 18.2555 33.5823 18.3451 33.4803 18.5244C33.3823 18.6996 33.3333 18.9227 33.3333 19.1936C33.3333 19.5242 33.4149 19.8051 33.5783 20.0361C33.7416 20.2632 33.9763 20.3767 34.2826 20.3767C34.4744 20.3767 34.6623 20.3209 34.846 20.2094H34.8521C34.8644 20.2094 34.8766 20.2174 34.8889 20.2333C34.9052 20.2452 34.9093 20.2572 34.9011 20.2691C34.7705 20.3767 34.6296 20.4564 34.4785 20.5082C34.3315 20.5599 34.1846 20.5858 34.0376 20.5858Z" fill="#202020"/>
<path d="M30.8596 20.0526C30.8636 20.0487 30.8698 20.0467 30.8779 20.0467C30.8902 20.0467 30.9024 20.0546 30.9147 20.0706C30.931 20.0825 30.9371 20.0925 30.933 20.1004C30.8024 20.2638 30.6881 20.3833 30.5901 20.459C30.4962 20.5307 30.3961 20.5665 30.29 20.5665C30.1757 20.5665 30.0879 20.5267 30.0266 20.447C29.9695 20.3634 29.943 20.2458 29.947 20.0945L29.9593 19.4133C29.8327 19.7758 29.6735 20.0626 29.4816 20.2737C29.2938 20.4849 29.0815 20.5904 28.8447 20.5904C28.6528 20.5904 28.4874 20.5207 28.3486 20.3813C28.2139 20.2419 28.1465 20.0307 28.1465 19.7479C28.1465 19.4651 28.2159 19.2002 28.3547 18.9532C28.4935 18.7022 28.6752 18.5031 28.8998 18.3557C29.1284 18.2043 29.3652 18.1286 29.6102 18.1286C29.749 18.1286 29.8715 18.1545 29.9777 18.2063L29.996 16.814C30.0042 16.6268 29.9389 16.5332 29.8 16.5332C29.7225 16.5332 29.6184 16.5631 29.4877 16.6228C29.4836 16.6268 29.4775 16.6288 29.4693 16.6288C29.453 16.6288 29.4408 16.6189 29.4326 16.5989C29.4285 16.579 29.4346 16.5651 29.451 16.5571L30.2532 16.1807H30.2655C30.2777 16.1807 30.292 16.1866 30.3084 16.1986C30.3247 16.2105 30.3329 16.2205 30.3329 16.2285L30.2961 19.9809C30.2961 20.1004 30.3084 20.1881 30.3329 20.2438C30.3614 20.2996 30.4064 20.3275 30.4676 20.3275C30.5615 20.3275 30.6922 20.2359 30.8596 20.0526ZM29.0039 20.2976C29.1917 20.2976 29.3571 20.216 29.5 20.0526C29.6469 19.8853 29.7613 19.6881 29.8429 19.4611C29.9246 19.23 29.9654 19.0269 29.9654 18.8516C29.9654 18.6843 29.9185 18.5568 29.8245 18.4692C29.7306 18.3816 29.5959 18.3377 29.4203 18.3377C29.2407 18.3377 29.0794 18.3855 28.9365 18.4811C28.7936 18.5728 28.6813 18.7082 28.5997 18.8875C28.518 19.0627 28.4772 19.2719 28.4772 19.5149C28.4813 19.7778 28.5303 19.975 28.6242 20.1064C28.7181 20.2339 28.8447 20.2976 29.0039 20.2976Z" fill="#202020"/>
<path d="M26.3051 20.5918C26.0928 20.5918 25.907 20.542 25.7478 20.4424C25.5926 20.3389 25.4722 20.1994 25.3864 20.0242C25.3007 19.8489 25.2578 19.6517 25.2578 19.4326C25.2578 19.1856 25.3088 18.9626 25.4109 18.7634C25.513 18.5642 25.6539 18.4088 25.8335 18.2973C26.0172 18.1818 26.2255 18.124 26.4582 18.124C26.7685 18.124 27.0196 18.2256 27.2115 18.4288C27.4074 18.6279 27.5054 18.9048 27.5054 19.2593C27.5054 19.5302 27.4503 19.7672 27.3401 19.9704C27.2298 20.1735 27.0829 20.3289 26.8991 20.4365C26.7154 20.54 26.5174 20.5918 26.3051 20.5918ZM26.4888 20.4424C26.6889 20.4424 26.8542 20.3608 26.9849 20.1974C27.1155 20.0341 27.1808 19.813 27.1808 19.5342C27.1808 19.3191 27.1421 19.1139 27.0645 18.9187C26.991 18.7235 26.8848 18.5662 26.746 18.4467C26.6113 18.3272 26.4582 18.2674 26.2867 18.2674C26.0866 18.2674 25.9192 18.3471 25.7845 18.5064C25.6498 18.6658 25.5824 18.8849 25.5824 19.1637C25.5824 19.3748 25.6212 19.58 25.6988 19.7792C25.7763 19.9744 25.8845 20.1337 26.0234 20.2572C26.1622 20.3807 26.3173 20.4424 26.4888 20.4424Z" fill="#202020"/>
<path d="M23.4457 20.5918C23.2334 20.5918 23.0476 20.542 22.8884 20.4424C22.7332 20.3389 22.6128 20.1994 22.527 20.0242C22.4413 19.8489 22.3984 19.6517 22.3984 19.4326C22.3984 19.1856 22.4495 18.9626 22.5515 18.7634C22.6536 18.5642 22.7945 18.4088 22.9741 18.2973C23.1579 18.1818 23.3661 18.124 23.5988 18.124C23.9091 18.124 24.1602 18.2256 24.3521 18.4288C24.5481 18.6279 24.6461 18.9048 24.6461 19.2593C24.6461 19.5302 24.5909 19.7672 24.4807 19.9704C24.3705 20.1735 24.2235 20.3289 24.0398 20.4365C23.856 20.54 23.658 20.5918 23.4457 20.5918ZM23.6294 20.4424C23.8295 20.4424 23.9948 20.3608 24.1255 20.1974C24.2561 20.0341 24.3215 19.813 24.3215 19.5342C24.3215 19.3191 24.2827 19.1139 24.2051 18.9187C24.1316 18.7235 24.0255 18.5662 23.8866 18.4467C23.7519 18.3272 23.5988 18.2674 23.4273 18.2674C23.2273 18.2674 23.0599 18.3471 22.9251 18.5064C22.7904 18.6658 22.723 18.8849 22.723 19.1637C22.723 19.3748 22.7618 19.58 22.8394 19.7792C22.917 19.9744 23.0252 20.1337 23.164 20.2572C23.3028 20.3807 23.4579 20.4424 23.6294 20.4424Z" fill="#202020"/>
<path d="M22.343 16.7734C22.3634 16.7734 22.3736 16.7854 22.3736 16.8093C22.3736 16.8332 22.3634 16.8451 22.343 16.8451C22.2083 16.8451 22.094 16.877 22.0001 16.9407C21.9062 17.0045 21.8245 17.126 21.7551 17.3052L20.5119 20.502C20.5119 20.5179 20.4914 20.5259 20.4506 20.5259C20.4098 20.5259 20.3873 20.5179 20.3832 20.502L19.63 18.805L18.9746 20.502C18.9706 20.5179 18.9461 20.5259 18.9012 20.5259C18.8562 20.5259 18.8317 20.5179 18.8277 20.502L17.3946 17.2694C17.3333 17.114 17.266 17.0045 17.1925 16.9407C17.119 16.877 17.023 16.8451 16.9046 16.8451C16.8883 16.8451 16.8801 16.8332 16.8801 16.8093C16.876 16.7854 16.8822 16.7734 16.8985 16.7734L17.1557 16.7794C17.2782 16.7874 17.364 16.7914 17.4129 16.7914C17.5273 16.7914 17.662 16.7874 17.8172 16.7794L18.0621 16.7734C18.0785 16.7734 18.0866 16.7854 18.0866 16.8093C18.0866 16.8332 18.0785 16.8451 18.0621 16.8451C17.956 16.8451 17.8743 16.8591 17.8172 16.887C17.7641 16.9149 17.7375 16.9646 17.7375 17.0363C17.7375 17.0842 17.7518 17.1419 17.7804 17.2096L19.042 20.018L19.5565 18.6437L18.944 17.2694C18.8746 17.11 18.8052 17.0005 18.7358 16.9407C18.6664 16.877 18.5745 16.8451 18.4602 16.8451C18.4439 16.8451 18.4357 16.8332 18.4357 16.8093C18.4357 16.7854 18.4418 16.7734 18.4541 16.7734L18.7052 16.7794C18.8195 16.7874 18.9052 16.7914 18.9624 16.7914C19.0481 16.7914 19.1482 16.7874 19.2625 16.7794L19.4217 16.7734C19.4421 16.7734 19.4523 16.7854 19.4523 16.8093C19.4523 16.8332 19.4421 16.8451 19.4217 16.8451C19.3523 16.8451 19.3033 16.8511 19.2747 16.8631C19.2462 16.871 19.2319 16.8929 19.2319 16.9288C19.2319 16.9686 19.2666 17.0622 19.336 17.2096L19.7769 18.2015L20.126 17.2694C20.1709 17.1578 20.1934 17.0742 20.1934 17.0184C20.1934 16.9029 20.1036 16.8451 19.9239 16.8451C19.9117 16.8451 19.9035 16.8332 19.8994 16.8093C19.8994 16.7854 19.9076 16.7734 19.9239 16.7734L20.0893 16.7794C20.1709 16.7874 20.2485 16.7914 20.322 16.7914C20.3914 16.7914 20.4792 16.7874 20.5853 16.7794L20.8242 16.7734C20.8405 16.7734 20.8487 16.7854 20.8487 16.8093C20.8528 16.8332 20.8466 16.8451 20.8303 16.8451C20.6997 16.8451 20.5894 16.877 20.4996 16.9407C20.4139 17.0045 20.3363 17.126 20.2669 17.3052L19.8565 18.3748L20.5853 20.018L21.6265 17.2694C21.651 17.1977 21.6632 17.1379 21.6632 17.0901C21.6632 17.0065 21.6285 16.9447 21.5591 16.9049C21.4897 16.8651 21.3774 16.8451 21.2223 16.8451C21.2059 16.8451 21.1978 16.8332 21.1978 16.8093C21.1978 16.7854 21.2059 16.7734 21.2223 16.7734L21.455 16.7794C21.5856 16.7874 21.7061 16.7914 21.8163 16.7914C21.8898 16.7914 21.9796 16.7874 22.0858 16.7794L22.343 16.7734Z" fill="#202020"/>
<path d="M71.0674 18.4844H82.9674" stroke="#202020" stroke-width="0.0555725" stroke-linecap="round"/>
<path d="M80.3362 9.14551C81.1924 9.14551 81.8684 8.85971 82.3641 8.28812C82.8748 7.71652 83.1302 6.93974 83.1302 5.95777V0H85.0004V6.02372C85.0004 7.54797 84.5723 8.73513 83.7161 9.58519C82.8598 10.4353 81.7332 10.8603 80.3362 10.8603C78.9391 10.8603 77.8125 10.4353 76.9562 9.58519C76.1 8.73513 75.6719 7.54797 75.6719 6.02372V0H77.5196V5.95777C77.5196 6.9544 77.7749 7.73118 78.2857 8.28812C78.7814 8.85971 79.4649 9.14551 80.3362 9.14551Z" fill="#202020"/>
<path d="M62.3858 8.3101L61.2817 10.7504H59.2988L64.1659 0H66.1488L70.9933 10.7504H69.0104L67.9063 8.3101H62.3858ZM67.1628 6.6173L65.1573 2.19844L63.1519 6.6173H67.1628Z" fill="#202020"/>
<path d="M52.6318 0H54.4795V10.7504H52.4741L46.2325 2.90194V10.7504H44.3623V0H46.2325L52.6318 8.0243V0Z" fill="#202020"/>
<path d="M30.9415 8.3101L29.8374 10.7504H27.8545L32.7216 0H34.7045L39.549 10.7504H37.5661L36.462 8.3101H30.9415ZM35.7184 6.6173L33.713 2.19844L31.7076 6.6173H35.7184Z" fill="#202020"/>
<path d="M13.8564 10.7504V0H15.7267V4.66069H21.1796V0H23.0498V10.7504H21.1796V6.35349H15.7267V10.7504H13.8564Z" fill="#202020"/>
<path d="M5.20507 1.64883V10.7504H3.33485V1.64883H0V0H8.53992V1.64883H5.20507Z" fill="#202020"/>
</svg>
