<svg width="240" height="65" viewBox="0 0 240 65" fill="none" xmlns="http://www.w3.org/2000/svg">
<path d="M4.80078 54.2373H38.4007" stroke="white" stroke-width="0.5" stroke-linecap="round"/>
<path d="M191.463 58.8237C191.474 58.812 191.492 58.8062 191.515 58.8062C191.549 58.8062 191.584 58.8296 191.618 58.8763C191.653 58.9114 191.664 58.9406 191.653 58.964C191.319 59.4315 191.007 59.7763 190.719 59.9984C190.442 60.2205 190.16 60.3315 189.872 60.3315C189.226 60.3315 188.903 59.8698 188.903 58.9465L188.938 56.7724C188.558 57.8595 188.056 58.7361 187.434 59.4023C186.823 60.0685 186.171 60.4017 185.48 60.4017C185.042 60.4017 184.684 60.2497 184.407 59.9458C184.142 59.6302 184.01 59.1335 184.01 58.4556C184.01 57.6491 184.2 56.8367 184.58 56.0186C184.972 55.1887 185.48 54.5108 186.102 53.9848C186.725 53.4471 187.359 53.1783 188.004 53.1783C188.246 53.1783 188.483 53.2192 188.713 53.301C188.955 53.3828 189.169 53.5056 189.353 53.6692C189.537 53.4822 189.647 53.2776 189.682 53.0556C189.693 53.0322 189.733 53.0205 189.803 53.0205C189.883 53.0205 189.918 53.0322 189.906 53.0556L189.872 58.6133C189.86 59.2913 190.022 59.6302 190.356 59.6302C190.644 59.6302 191.013 59.3614 191.463 58.8237ZM186.033 59.5426C186.506 59.5426 186.961 59.3146 187.399 58.8588C187.837 58.3913 188.189 57.8185 188.454 57.1406C188.731 56.4627 188.869 55.8257 188.869 55.2296C188.869 54.7971 188.742 54.4523 188.488 54.1952C188.246 53.9263 187.924 53.7919 187.52 53.7919C187.059 53.7919 186.632 53.9614 186.24 54.3004C185.848 54.6393 185.537 55.1069 185.307 55.703C185.076 56.2991 184.961 56.9653 184.961 57.7017C184.961 58.3328 185.047 58.8004 185.22 59.1043C185.405 59.3965 185.676 59.5426 186.033 59.5426Z" fill="white"/>
<path d="M182.602 58.8112C182.648 58.8112 182.688 58.8346 182.723 58.8813C182.769 58.9164 182.786 58.9456 182.775 58.969C182.406 59.4482 182.083 59.7989 181.806 60.0209C181.541 60.2313 181.259 60.3365 180.959 60.3365C180.313 60.3365 179.991 59.8748 179.991 58.9515L180.008 55.1119C180.008 54.6911 179.933 54.4047 179.783 54.2528C179.633 54.0891 179.339 53.9898 178.901 53.9547C178.463 53.908 177.65 53.8846 176.463 53.8846L176.671 60.5469C176.682 60.7456 176.688 61.0203 176.688 61.3709C176.688 62.2826 176.624 63.0014 176.498 63.5274C176.371 64.0534 176.169 64.4274 175.892 64.6495C175.616 64.8833 175.241 65.0001 174.768 65.0001C174.342 65.0001 174.008 64.9242 173.765 64.7722C173.535 64.632 173.414 64.4566 173.402 64.2462C173.379 64.0826 173.42 63.9482 173.523 63.843C173.639 63.7495 173.794 63.7027 173.99 63.7027C174.186 63.7027 174.33 63.7436 174.423 63.8255C174.526 63.919 174.63 64.0592 174.734 64.2462C174.815 64.3865 174.889 64.4917 174.959 64.5618C175.028 64.6436 175.126 64.6846 175.253 64.6846C175.426 64.6846 175.547 64.5618 175.616 64.3164C175.696 64.0826 175.737 63.6151 175.737 62.9138C175.737 62.4346 175.719 61.7976 175.685 61.0027L175.495 54.8138V54.7787L175.477 54.8138C175.454 54.5684 175.414 54.393 175.356 54.2878C175.31 54.1826 175.224 54.1125 175.097 54.0774C174.97 54.0424 174.757 54.019 174.457 54.0073C173.858 53.9723 172.953 53.9547 171.742 53.9547L171.95 60.5469C171.961 60.7456 171.967 61.0203 171.967 61.3709C171.967 62.2826 171.904 63.0014 171.777 63.5274C171.65 64.0534 171.448 64.4274 171.172 64.6495C170.895 64.8833 170.52 65.0001 170.048 65.0001C169.621 65.0001 169.293 64.9242 169.062 64.7722C168.82 64.632 168.693 64.4566 168.682 64.2462C168.658 64.0826 168.705 63.9482 168.82 63.843C168.924 63.7495 169.074 63.7027 169.269 63.7027C169.465 63.7027 169.61 63.7436 169.702 63.8255C169.806 63.919 169.909 64.0592 170.013 64.2462C170.094 64.3865 170.169 64.4917 170.238 64.5618C170.307 64.6436 170.405 64.6846 170.532 64.6846C170.705 64.6846 170.826 64.5618 170.895 64.3164C170.976 64.0826 171.016 63.6151 171.016 62.9138C171.016 62.4346 170.999 61.7976 170.964 61.0027L170.774 54.8138C170.751 54.5099 170.71 54.2937 170.653 54.1651C170.595 54.0365 170.486 53.9547 170.324 53.9197C170.174 53.8729 169.909 53.8495 169.529 53.8495C169.483 53.8495 169.454 53.8145 169.442 53.7443C169.442 53.6742 169.46 53.6391 169.494 53.6391C169.955 53.6391 170.272 53.5865 170.445 53.4813C170.618 53.3645 170.705 53.1541 170.705 52.8502C170.751 51.2723 171.051 50.1502 171.604 49.484C172.157 48.806 172.958 48.4671 174.008 48.4671C174.768 48.4671 175.472 48.6366 176.117 48.9755C176.659 47.9586 177.529 47.4502 178.728 47.4502C179.351 47.4502 179.835 47.5671 180.181 47.8008C180.538 48.0229 180.717 48.2918 180.717 48.6073C180.717 48.9346 180.544 49.0982 180.198 49.0982C180.025 49.0982 179.881 49.0456 179.766 48.9404C179.662 48.8353 179.547 48.6833 179.42 48.4846C179.247 48.2275 179.086 48.0346 178.936 47.906C178.797 47.7775 178.596 47.7132 178.331 47.7132C177.72 47.7132 177.241 48.0697 176.895 48.7827C176.561 49.4956 176.394 50.5359 176.394 51.9034L176.411 52.482L176.446 53.5515C177.483 53.5398 178.584 53.5047 179.749 53.4463C180.256 53.4229 180.567 53.4112 180.682 53.4112C180.809 53.4112 180.89 53.4346 180.924 53.4813C180.959 53.5281 180.976 53.6391 180.976 53.8145V54.5158V55.0593V58.6183C180.976 58.969 181.011 59.2261 181.08 59.3898C181.161 59.5534 181.288 59.6352 181.46 59.6352C181.749 59.6352 182.118 59.3664 182.567 58.8287L182.602 58.8112ZM171.725 53.6041C173.131 53.6041 174.036 53.5982 174.44 53.5865C174.774 53.5632 175.022 53.4989 175.183 53.3937C175.345 53.2768 175.425 53.0956 175.425 52.8502C175.425 51.7281 175.523 50.7872 175.719 50.0275C175.466 49.6534 175.149 49.3437 174.768 49.0982C174.388 48.8528 174.002 48.7301 173.61 48.7301C172.987 48.7301 172.509 49.0515 172.175 49.6943C171.852 50.3255 171.69 51.2547 171.69 52.482L171.725 53.6041Z" fill="white"/>
<path d="M168.65 58.8237C168.662 58.812 168.679 58.8062 168.702 58.8062C168.737 58.8062 168.771 58.8296 168.806 58.8763C168.84 58.9114 168.852 58.9406 168.84 58.964C168.506 59.4315 168.195 59.7763 167.907 59.9984C167.63 60.2205 167.348 60.3315 167.059 60.3315C166.414 60.3315 166.091 59.8698 166.091 58.9465L166.126 56.7724C165.745 57.8595 165.244 58.7361 164.621 59.4023C164.01 60.0685 163.359 60.4017 162.667 60.4017C162.229 60.4017 161.872 60.2497 161.595 59.9458C161.33 59.6302 161.197 59.1335 161.197 58.4556C161.197 57.6491 161.387 56.8367 161.768 56.0186C162.16 55.1887 162.667 54.5108 163.29 53.9848C163.912 53.4471 164.546 53.1783 165.192 53.1783C165.434 53.1783 165.67 53.2192 165.901 53.301C166.143 53.3828 166.356 53.5056 166.541 53.6692C166.725 53.4822 166.835 53.2776 166.869 53.0556C166.881 53.0322 166.921 53.0205 166.99 53.0205C167.071 53.0205 167.105 53.0322 167.094 53.0556L167.059 58.6133C167.048 59.2913 167.209 59.6302 167.543 59.6302C167.832 59.6302 168.201 59.3614 168.65 58.8237ZM163.22 59.5426C163.693 59.5426 164.148 59.3146 164.587 58.8588C165.025 58.3913 165.376 57.8185 165.641 57.1406C165.918 56.4627 166.056 55.8257 166.056 55.2296C166.056 54.7971 165.93 54.4523 165.676 54.1952C165.434 53.9263 165.111 53.7919 164.708 53.7919C164.246 53.7919 163.82 53.9614 163.428 54.3004C163.036 54.6393 162.725 55.1069 162.494 55.703C162.264 56.2991 162.148 56.9653 162.148 57.7017C162.148 58.3328 162.235 58.8004 162.408 59.1043C162.592 59.3965 162.863 59.5426 163.22 59.5426Z" fill="white"/>
<path d="M160.108 59.9709C160.154 59.9709 160.177 60.0059 160.177 60.0761C160.177 60.1462 160.154 60.1813 160.108 60.1813H158.085C157.785 60.1813 157.237 59.6787 156.442 58.6735C155.658 57.6683 154.713 56.2598 153.606 54.4482C153.249 54.5533 152.868 54.6059 152.465 54.6059C152.292 54.6059 152.09 54.5943 151.859 54.5709L151.825 58.7611C151.836 59.1235 151.877 59.3864 151.946 59.5501C152.015 59.7137 152.142 59.8248 152.326 59.8832C152.522 59.9416 152.834 59.9709 153.26 59.9709C153.306 59.9709 153.329 60.0059 153.329 60.0761C153.329 60.1462 153.312 60.1813 153.277 60.1813C152.92 60.1813 152.638 60.1754 152.43 60.1637L151.254 60.1462L150.061 60.1637C149.854 60.1754 149.571 60.1813 149.214 60.1813C149.168 60.1813 149.145 60.1462 149.145 60.0761C149.145 60.0059 149.168 59.9709 149.214 59.9709C149.652 59.9709 149.975 59.9416 150.182 59.8832C150.39 59.8131 150.534 59.6962 150.614 59.5326C150.695 59.3689 150.741 59.1118 150.753 58.7611V50.6436C150.741 50.293 150.701 50.0358 150.632 49.8722C150.562 49.7086 150.424 49.5975 150.217 49.5391C150.021 49.4689 149.704 49.4339 149.266 49.4339C149.219 49.4339 149.196 49.3988 149.196 49.3287C149.196 49.2586 149.219 49.2235 149.266 49.2235L150.113 49.241C150.597 49.2644 150.983 49.2761 151.271 49.2761C151.514 49.2761 151.727 49.2702 151.911 49.2586C152.107 49.2469 152.263 49.2352 152.378 49.2235C152.712 49.1884 153.006 49.1709 153.26 49.1709C154.217 49.1709 154.949 49.3638 155.456 49.7495C155.963 50.1352 156.217 50.6728 156.217 51.3624C156.217 51.9118 156.056 52.4319 155.733 52.9228C155.422 53.4021 154.995 53.7936 154.453 54.0975C155.433 55.5936 156.246 56.7624 156.891 57.604C157.549 58.4455 158.131 59.0533 158.638 59.4274C159.145 59.7897 159.635 59.9709 160.108 59.9709ZM151.825 54.1501C152.136 54.1852 152.447 54.2027 152.759 54.2027C153.566 54.2027 154.148 54.0274 154.505 53.6767C154.862 53.3261 155.041 52.7534 155.041 51.9586C155.041 51.0702 154.851 50.4274 154.471 50.03C154.09 49.6326 153.577 49.4339 152.932 49.4339C152.609 49.4339 152.378 49.4573 152.24 49.504C152.102 49.5391 151.998 49.6443 151.929 49.8196C151.871 49.9832 151.836 50.2696 151.825 50.6787V54.1501Z" fill="white"/>
<path d="M142.535 53.5181C142.824 53.5181 142.968 53.6993 142.968 54.0616C142.968 54.3538 142.887 54.6402 142.726 54.9207C142.576 55.1896 142.368 55.4116 142.103 55.587C141.838 55.7623 141.555 55.8499 141.256 55.8499C140.933 55.8499 140.518 55.7272 140.011 55.4818C139.803 57.0831 139.273 58.3045 138.42 59.146C137.578 59.9759 136.529 60.3908 135.273 60.3908C134.489 60.3908 133.786 60.2038 133.163 59.8298C132.552 59.4441 132.074 58.9356 131.728 58.3045C131.382 57.6733 131.209 56.9895 131.209 56.2532C131.209 55.9376 131.244 55.622 131.313 55.3064C131.451 54.687 131.716 54.1259 132.108 53.6233C132.5 53.1207 132.961 52.7292 133.492 52.4487C134.022 52.1681 134.558 52.0279 135.1 52.0279C135.676 52.0279 136.149 52.1915 136.518 52.5188C137.209 51.7357 137.555 51.0519 137.555 50.4675C137.555 50.2454 137.521 50.0759 137.451 49.9591C137.382 49.8305 137.284 49.7136 137.157 49.6084C137.065 49.5149 136.996 49.4331 136.95 49.3629C136.904 49.2928 136.881 49.1935 136.881 49.0649C136.881 48.8896 136.933 48.7493 137.036 48.6441C137.14 48.5389 137.273 48.4863 137.434 48.4863C137.688 48.4863 137.895 48.6032 138.057 48.837C138.218 49.0707 138.299 49.3805 138.299 49.7662C138.299 50.4207 138.057 51.087 137.573 51.7649C137.088 52.4428 136.506 53.0798 135.826 53.6759C135.146 54.2603 134.293 54.9441 133.267 55.7272L132.264 56.5162C132.379 57.1473 132.615 57.7084 132.973 58.1993C133.33 58.6785 133.757 59.0525 134.252 59.3214C134.76 59.5785 135.29 59.7071 135.843 59.7071C136.892 59.7071 137.763 59.333 138.454 58.585C139.158 57.8369 139.584 56.7616 139.734 55.359L139.405 55.1837C138.921 54.9266 138.535 54.7396 138.247 54.6227C137.959 54.4941 137.682 54.4298 137.417 54.4298C137.255 54.4298 137.123 54.4649 137.019 54.535C136.927 54.6051 136.881 54.6928 136.881 54.798C136.881 54.9383 136.927 55.1019 137.019 55.2889C137.111 55.4993 137.157 55.6512 137.157 55.7447C137.157 55.8499 137.123 55.9493 137.054 56.0428C136.985 56.1246 136.881 56.1655 136.742 56.1655C136.604 56.1655 136.489 56.1246 136.397 56.0428C136.316 55.9493 136.276 55.8032 136.276 55.6045C136.276 55.3006 136.368 55.0084 136.552 54.7279C136.748 54.4473 136.996 54.2253 137.296 54.0616C137.607 53.8863 137.924 53.7986 138.247 53.7986C138.535 53.7986 138.829 53.8629 139.129 53.9915C139.44 54.1084 139.82 54.2837 140.27 54.5175C140.639 54.7162 140.956 54.874 141.221 54.9909C141.486 55.096 141.728 55.1486 141.947 55.1486C142.097 55.1486 142.218 55.1194 142.311 55.061C142.414 54.9909 142.466 54.909 142.466 54.8155C142.466 54.7103 142.409 54.5759 142.293 54.4123C142.224 54.3188 142.172 54.237 142.138 54.1668C142.103 54.0967 142.086 54.0149 142.086 53.9214C142.086 53.6525 142.236 53.5181 142.535 53.5181ZM132.264 54.7454C132.206 55.1194 132.177 55.435 132.177 55.6921C132.177 55.8207 132.189 56.0019 132.212 56.2357C132.523 55.9785 132.846 55.7214 133.18 55.4642C134.229 54.646 135.048 53.9681 135.636 53.4305C135.348 52.811 134.875 52.5013 134.218 52.5013C133.768 52.5013 133.365 52.7175 133.007 53.1499C132.662 53.5707 132.414 54.1025 132.264 54.7454Z" fill="white"/>
<path d="M124.314 58.9339C124.349 58.9339 124.389 58.9573 124.435 59.0041C124.482 59.0391 124.487 59.0683 124.453 59.0917C123.98 59.5476 123.548 59.8807 123.156 60.0911C122.775 60.2898 122.395 60.3891 122.015 60.3891C121.565 60.3891 121.19 60.2722 120.891 60.0385C120.602 59.8047 120.464 59.4248 120.476 58.8989L120.493 54.8138C120.493 54.545 120.458 54.358 120.389 54.2528C120.32 54.1476 120.222 54.0833 120.095 54.0599C119.968 54.0248 119.732 54.0015 119.386 53.9898L116.982 53.9372L117.19 60.5469C117.202 60.7456 117.207 61.0203 117.207 61.3709C117.207 62.2826 117.144 63.0014 117.017 63.5274C116.89 64.0534 116.689 64.4274 116.412 64.6495C116.135 64.8833 115.761 65.0001 115.288 65.0001C114.861 65.0001 114.533 64.9242 114.302 64.7722C114.06 64.632 113.933 64.4566 113.922 64.2462C113.899 64.0826 113.945 63.9482 114.06 63.843C114.164 63.7495 114.314 63.7027 114.51 63.7027C114.706 63.7027 114.85 63.7436 114.942 63.8255C115.046 63.919 115.15 64.0592 115.253 64.2462C115.334 64.3865 115.409 64.4917 115.478 64.5618C115.547 64.6436 115.645 64.6846 115.772 64.6846C115.945 64.6846 116.066 64.5618 116.135 64.3164C116.216 64.0826 116.256 63.6151 116.256 62.9138C116.256 62.4346 116.239 61.7976 116.204 61.0027L116.014 54.8138C115.991 54.4982 115.951 54.282 115.893 54.1651C115.835 54.0365 115.726 53.9547 115.565 53.9197C115.403 53.8729 115.126 53.8495 114.735 53.8495C114.688 53.8495 114.665 53.8145 114.665 53.7443C114.665 53.6742 114.688 53.6391 114.735 53.6391C115.196 53.6391 115.513 53.5865 115.686 53.4813C115.859 53.3645 115.945 53.1541 115.945 52.8502C115.922 51.4125 115.991 50.3138 116.152 49.5541C116.325 48.7827 116.608 48.2392 117 47.9236C117.403 47.608 117.985 47.4502 118.746 47.4502C119.184 47.4502 119.542 47.5437 119.818 47.7307C120.107 47.906 120.262 48.1164 120.285 48.3619C120.285 48.5372 120.233 48.6716 120.13 48.7651C120.026 48.8469 119.888 48.8879 119.715 48.8879C119.542 48.8879 119.403 48.8411 119.3 48.7476C119.196 48.6541 119.086 48.508 118.971 48.3093C118.844 48.0989 118.729 47.9469 118.625 47.8534C118.521 47.7599 118.377 47.7132 118.193 47.7132C117.34 47.7132 116.913 48.993 116.913 51.5528C116.913 51.9619 116.919 52.2716 116.931 52.482L116.965 53.6216C118.233 53.6216 119.081 53.6099 119.507 53.5865C119.991 53.5865 120.378 53.4697 120.666 53.2359C120.965 52.9904 121.138 52.6749 121.184 52.2891C121.184 52.2424 121.231 52.219 121.323 52.219C121.369 52.219 121.409 52.2249 121.444 52.2365C121.478 52.2482 121.496 52.2658 121.496 52.2891V53.5865C121.945 53.5749 122.741 53.5339 123.882 53.4638C123.928 53.4638 123.969 53.4813 124.003 53.5164C124.038 53.5398 124.055 53.5749 124.055 53.6216C124.032 53.7385 123.963 53.8671 123.847 54.0073C123.744 54.1476 123.628 54.206 123.502 54.1826C122.706 54.0774 122.032 54.019 121.478 54.0073L121.461 58.3554C121.45 58.8346 121.536 59.1852 121.721 59.4073C121.905 59.6177 122.199 59.7229 122.602 59.7229C122.948 59.7229 123.248 59.6586 123.502 59.53C123.755 59.3898 124.02 59.1911 124.297 58.9339H124.314Z" fill="white"/>
<path d="M113.892 58.8237C113.904 58.812 113.921 58.8062 113.944 58.8062C113.979 58.8062 114.013 58.8296 114.048 58.8763C114.083 58.9114 114.094 58.9406 114.083 58.964C113.748 59.4315 113.437 59.7763 113.149 59.9984C112.872 60.2205 112.59 60.3315 112.302 60.3315C111.656 60.3315 111.333 59.8698 111.333 58.9465L111.368 56.7724C110.987 57.8595 110.486 58.7361 109.863 59.4023C109.252 60.0685 108.601 60.4017 107.909 60.4017C107.471 60.4017 107.114 60.2497 106.837 59.9458C106.572 59.6302 106.439 59.1335 106.439 58.4556C106.439 57.6491 106.63 56.8367 107.01 56.0186C107.402 55.1887 107.909 54.5108 108.532 53.9848C109.154 53.4471 109.788 53.1783 110.434 53.1783C110.676 53.1783 110.912 53.2192 111.143 53.301C111.385 53.3828 111.598 53.5056 111.783 53.6692C111.967 53.4822 112.077 53.2776 112.111 53.0556C112.123 53.0322 112.163 53.0205 112.232 53.0205C112.313 53.0205 112.348 53.0322 112.336 53.0556L112.302 58.6133C112.29 59.2913 112.451 59.6302 112.786 59.6302C113.074 59.6302 113.443 59.3614 113.892 58.8237ZM108.463 59.5426C108.935 59.5426 109.391 59.3146 109.829 58.8588C110.267 58.3913 110.618 57.8185 110.884 57.1406C111.16 56.4627 111.299 55.8257 111.299 55.2296C111.299 54.7971 111.172 54.4523 110.918 54.1952C110.676 53.9263 110.353 53.7919 109.95 53.7919C109.489 53.7919 109.062 53.9614 108.67 54.3004C108.278 54.6393 107.967 55.1069 107.736 55.703C107.506 56.2991 107.391 56.9653 107.391 57.7017C107.391 58.3328 107.477 58.8004 107.65 59.1043C107.834 59.3965 108.105 59.5426 108.463 59.5426Z" fill="white"/>
<path d="M104.118 53.2393C104.383 53.2393 104.637 53.3269 104.879 53.5022C105.133 53.6776 105.259 53.8763 105.259 54.0983C105.259 54.262 105.202 54.4022 105.087 54.5191C104.971 54.6243 104.839 54.6769 104.689 54.6769C104.562 54.6769 104.458 54.6535 104.378 54.6068C104.297 54.56 104.21 54.4957 104.118 54.4139C104.061 54.3555 103.997 54.3087 103.928 54.2737C103.87 54.2269 103.801 54.2035 103.72 54.2035C103.455 54.2035 103.196 54.5367 102.942 55.2029C102.689 55.8691 102.475 56.6698 102.302 57.6048C102.141 58.5282 102.055 59.3464 102.043 60.0594C102.043 60.1412 101.991 60.2055 101.887 60.2522C101.795 60.299 101.663 60.3224 101.49 60.3224C101.317 60.3224 101.202 60.3107 101.144 60.2873C101.086 60.2756 101.052 60.2522 101.04 60.2172C101.04 60.1704 101.046 60.0418 101.057 59.8314C101.069 59.6094 101.075 59.2938 101.075 58.8847L101.109 55.6412C101.109 54.5074 100.89 53.9406 100.452 53.9406C100.106 53.9406 99.7375 54.1509 99.3455 54.5717L99.3109 54.5893C99.2763 54.5893 99.2475 54.5717 99.2245 54.5367C99.1899 54.5016 99.1783 54.4724 99.1899 54.449C99.4781 54.075 99.7893 53.7828 100.124 53.5724C100.469 53.362 100.792 53.2568 101.092 53.2568C101.415 53.2568 101.657 53.4204 101.818 53.7477C101.991 54.075 102.072 54.6944 102.06 55.6061V57.6399C102.233 56.4126 102.498 55.3724 102.856 54.5191C103.213 53.6659 103.634 53.2393 104.118 53.2393Z" fill="white"/>
<path d="M96.1062 60.405C95.4376 60.405 94.8727 60.2297 94.4116 59.879C93.962 59.5284 93.6277 59.0901 93.4086 58.5641C93.1896 58.0264 93.0801 57.4771 93.0801 56.916C93.0801 56.1563 93.2415 55.4959 93.5643 54.9349C93.887 54.3738 94.3078 53.9414 94.8266 53.6375C95.3569 53.3336 95.9045 53.1816 96.4693 53.1816C96.9651 53.1816 97.3974 53.2868 97.7663 53.4972C98.1352 53.6959 98.3196 53.9648 98.3196 54.3037C98.3196 54.444 98.2735 54.5609 98.1813 54.6544C98.1006 54.7362 97.9738 54.7771 97.8008 54.7771C97.6049 54.7771 97.4492 54.7303 97.334 54.6368C97.2187 54.5433 97.1092 54.4031 97.0054 54.2161C96.7518 53.7836 96.3714 53.5674 95.8641 53.5674C95.2647 53.5674 94.8208 53.8303 94.5326 54.3563C94.2559 54.8706 94.1176 55.5251 94.1176 56.3199C94.1176 57.2901 94.3482 58.1141 94.8093 58.792C95.2704 59.4582 95.9333 59.7914 96.7979 59.7914C97.3397 59.7914 97.87 59.6277 98.3888 59.3005H98.4061C98.4407 59.3005 98.4752 59.3238 98.5098 59.3706C98.5559 59.4056 98.5675 59.4407 98.5444 59.4758C98.1755 59.7914 97.7778 60.0251 97.3513 60.1771C96.9362 60.329 96.5212 60.405 96.1062 60.405Z" fill="white"/>
<path d="M87.1331 58.8395C87.1446 58.8278 87.1619 58.822 87.185 58.822C87.2196 58.822 87.2541 58.8454 87.2887 58.8921C87.3348 58.9272 87.3521 58.9564 87.3406 58.9798C86.9717 59.459 86.6489 59.8096 86.3722 60.0317C86.1071 60.2421 85.8246 60.3473 85.5249 60.3473C85.2021 60.3473 84.9543 60.2304 84.7814 59.9967C84.62 59.7512 84.545 59.4064 84.5566 58.9622L84.5911 56.9635C84.2338 58.0272 83.7842 58.8687 83.2424 59.4882C82.7121 60.1077 82.1126 60.4174 81.444 60.4174C80.9021 60.4174 80.4353 60.2129 80.0433 59.8038C79.6629 59.3947 79.4727 58.7752 79.4727 57.9454C79.4727 57.1155 79.6686 56.3382 80.0606 55.6136C80.4525 54.8772 80.9655 54.2928 81.5996 53.8603C82.2452 53.4162 82.9138 53.1941 83.6055 53.1941C83.9974 53.1941 84.3433 53.2701 84.643 53.422L84.6949 49.337C84.718 48.7876 84.5335 48.5129 84.1415 48.5129C83.9225 48.5129 83.6285 48.6006 83.2596 48.7759C83.2481 48.7876 83.2308 48.7934 83.2078 48.7934C83.1617 48.7934 83.1271 48.7642 83.104 48.7058C83.0925 48.6473 83.1098 48.6064 83.1559 48.5831L85.4212 47.4785H85.4557C85.4903 47.4785 85.5307 47.496 85.5768 47.5311C85.6229 47.5662 85.646 47.5954 85.646 47.6188L85.5422 58.6291C85.5422 58.9798 85.5768 59.2369 85.646 59.4006C85.7267 59.5642 85.8535 59.646 86.0264 59.646C86.2915 59.646 86.6604 59.3772 87.1331 58.8395ZM81.8936 59.5583C82.4239 59.5583 82.8907 59.3187 83.2942 58.8395C83.7092 58.3486 84.032 57.77 84.2626 57.1038C84.4932 56.4259 84.6084 55.8298 84.6084 55.3155C84.6084 54.8246 84.4759 54.4506 84.2107 54.1934C83.9456 53.9363 83.5651 53.8077 83.0694 53.8077C82.5622 53.8077 82.1068 53.948 81.7033 54.2285C81.2999 54.4973 80.9828 54.8947 80.7523 55.4207C80.5217 55.935 80.4064 56.5486 80.4064 57.2616C80.418 58.033 80.5563 58.6116 80.8214 58.9973C81.0866 59.3713 81.444 59.5583 81.8936 59.5583Z" fill="white"/>
<path d="M74.2714 60.4225C73.672 60.4225 73.1474 60.2764 72.6978 59.9842C72.2598 59.6803 71.9197 59.2712 71.6776 58.7569C71.4355 58.2427 71.3145 57.6641 71.3145 57.0212C71.3145 56.2966 71.4586 55.642 71.7468 55.0576C72.035 54.4732 72.4327 54.0174 72.9399 53.6901C73.4587 53.3511 74.0466 53.1816 74.7037 53.1816C75.5799 53.1816 76.2888 53.4797 76.8307 54.0758C77.384 54.6602 77.6607 55.4725 77.6607 56.5128C77.6607 57.3076 77.5051 58.0031 77.1938 58.5992C76.8825 59.1953 76.4675 59.6511 75.9488 59.9667C75.43 60.2706 74.8709 60.4225 74.2714 60.4225ZM74.7902 59.9842C75.3551 59.9842 75.8219 59.7446 76.1908 59.2654C76.5597 58.7862 76.7442 58.1375 76.7442 57.3193C76.7442 56.6881 76.6347 56.0862 76.4156 55.5135C76.2081 54.9407 75.9084 54.479 75.5165 54.1284C75.136 53.7777 74.7037 53.6024 74.2195 53.6024C73.6547 53.6024 73.182 53.8362 72.8016 54.3037C72.4212 54.7712 72.2309 55.4141 72.2309 56.2323C72.2309 56.8518 72.3405 57.4537 72.5595 58.0381C72.7785 58.6108 73.084 59.0784 73.476 59.4407C73.8679 59.803 74.306 59.9842 74.7902 59.9842Z" fill="white"/>
<path d="M66.2011 60.4225C65.6016 60.4225 65.0771 60.2764 64.6275 59.9842C64.1894 59.6803 63.8494 59.2712 63.6073 58.7569C63.3652 58.2427 63.2441 57.6641 63.2441 57.0212C63.2441 56.2966 63.3882 55.642 63.6764 55.0576C63.9646 54.4732 64.3624 54.0174 64.8696 53.6901C65.3884 53.3511 65.9763 53.1816 66.6334 53.1816C67.5095 53.1816 68.2185 53.4797 68.7603 54.0758C69.3137 54.6602 69.5904 55.4725 69.5904 56.5128C69.5904 57.3076 69.4347 58.0031 69.1235 58.5992C68.8122 59.1953 68.3972 59.6511 67.8784 59.9667C67.3597 60.2706 66.8006 60.4225 66.2011 60.4225ZM66.7199 59.9842C67.2847 59.9842 67.7516 59.7446 68.1205 59.2654C68.4894 58.7862 68.6739 58.1375 68.6739 57.3193C68.6739 56.6881 68.5644 56.0862 68.3453 55.5135C68.1378 54.9407 67.8381 54.479 67.4461 54.1284C67.0657 53.7777 66.6334 53.6024 66.1492 53.6024C65.5844 53.6024 65.1117 53.8362 64.7313 54.3037C64.3508 54.7712 64.1606 55.4141 64.1606 56.2323C64.1606 56.8518 64.2701 57.4537 64.4892 58.0381C64.7082 58.6108 65.0137 59.0784 65.4057 59.4407C65.7976 59.803 66.2357 59.9842 66.7199 59.9842Z" fill="white"/>
<path d="M63.0863 49.2178C63.1439 49.2178 63.1728 49.2528 63.1728 49.323C63.1728 49.3931 63.1439 49.4282 63.0863 49.4282C62.7059 49.4282 62.3831 49.5217 62.1179 49.7087C61.8528 49.8957 61.6222 50.2522 61.4262 50.7782L57.9159 60.158C57.9159 60.2048 57.8583 60.2281 57.743 60.2281C57.6277 60.2281 57.5643 60.2048 57.5528 60.158L55.4259 55.1788L53.5756 60.158C53.5641 60.2048 53.4949 60.2281 53.3681 60.2281C53.2413 60.2281 53.1721 60.2048 53.1606 60.158L49.1142 50.673C48.9413 50.2171 48.7511 49.8957 48.5436 49.7087C48.3361 49.5217 48.0651 49.4282 47.7308 49.4282C47.6847 49.4282 47.6617 49.3931 47.6617 49.323C47.6501 49.2528 47.6674 49.2178 47.7135 49.2178L48.4398 49.2353C48.7857 49.2587 49.0277 49.2704 49.1661 49.2704C49.4889 49.2704 49.8693 49.2587 50.3074 49.2353L50.9991 49.2178C51.0452 49.2178 51.0682 49.2528 51.0682 49.323C51.0682 49.3931 51.0452 49.4282 50.9991 49.4282C50.6993 49.4282 50.4688 49.4691 50.3074 49.5509C50.1575 49.6327 50.0826 49.7788 50.0826 49.9892C50.0826 50.1295 50.1229 50.2989 50.2036 50.4976L53.7658 58.7379L55.2183 54.7054L53.4891 50.673C53.2932 50.2054 53.0972 49.884 52.9012 49.7087C52.7052 49.5217 52.4458 49.4282 52.123 49.4282C52.0769 49.4282 52.0539 49.3931 52.0539 49.323C52.0539 49.2528 52.0712 49.2178 52.1058 49.2178L52.8147 49.2353C53.1375 49.2587 53.3796 49.2704 53.541 49.2704C53.7831 49.2704 54.0655 49.2587 54.3883 49.2353L54.8379 49.2178C54.8956 49.2178 54.9244 49.2528 54.9244 49.323C54.9244 49.3931 54.8956 49.4282 54.8379 49.4282C54.6419 49.4282 54.5036 49.4457 54.4229 49.4808C54.3422 49.5041 54.3019 49.5684 54.3019 49.6736C54.3019 49.7905 54.3998 50.0652 54.5958 50.4976L55.8409 53.408L56.8265 50.673C56.9533 50.3457 57.0167 50.1002 57.0167 49.9366C57.0167 49.5976 56.7631 49.4282 56.2559 49.4282C56.2213 49.4282 56.1982 49.3931 56.1867 49.323C56.1867 49.2528 56.2098 49.2178 56.2559 49.2178L56.7228 49.2353C56.9533 49.2587 57.1724 49.2704 57.3799 49.2704C57.5758 49.2704 57.8237 49.2587 58.1234 49.2353L58.7978 49.2178C58.8439 49.2178 58.867 49.2528 58.867 49.323C58.8785 49.3931 58.8612 49.4282 58.8151 49.4282C58.4462 49.4282 58.135 49.5217 57.8813 49.7087C57.6393 49.8957 57.4202 50.2522 57.2242 50.7782L56.0657 53.9165L58.1234 58.7379L61.0631 50.673C61.1323 50.4626 61.1669 50.2873 61.1669 50.147C61.1669 49.9015 61.0689 49.7204 60.8729 49.6035C60.6769 49.4866 60.3599 49.4282 59.9218 49.4282C59.8757 49.4282 59.8527 49.3931 59.8527 49.323C59.8527 49.2528 59.8757 49.2178 59.9218 49.2178L60.5789 49.2353C60.9478 49.2587 61.2879 49.2704 61.5992 49.2704C61.8067 49.2704 62.0603 49.2587 62.36 49.2353L63.0863 49.2178Z" fill="white"/>
<path d="M200.662 54.2373H234.262" stroke="white" stroke-width="0.5" stroke-linecap="round"/>
<path d="M226.83 26.8344C229.248 26.8344 231.156 25.9958 232.556 24.3187C233.998 22.6415 234.719 20.3623 234.719 17.4811V0H240V17.6746C240 22.147 238.791 25.6303 236.373 28.1245C233.956 30.6187 230.774 31.8658 226.83 31.8658C222.885 31.8658 219.704 30.6187 217.287 28.1245C214.869 25.6303 213.66 22.147 213.66 17.6746V0H218.877V17.4811C218.877 20.4053 219.598 22.6845 221.04 24.3187C222.44 25.9958 224.37 26.8344 226.83 26.8344Z" fill="white"/>
<path d="M176.148 24.3832L173.03 31.5433H167.432L181.174 0H186.773L200.451 31.5433H194.853L191.735 24.3832H176.148ZM189.636 19.4162L183.973 6.45058L178.311 19.4162H189.636Z" fill="white"/>
<path d="M148.605 0H153.822V31.5433H148.16L130.536 8.51476V31.5433H125.256V0H130.536L148.605 23.5446V0Z" fill="white"/>
<path d="M87.3627 24.3832L84.2452 31.5433H78.6465L92.3888 0H97.9875L111.666 31.5433H106.068L102.95 24.3832H87.3627ZM100.851 19.4162L95.1882 6.45058L89.5258 19.4162H100.851Z" fill="white"/>
<path d="M39.123 31.5433V0H44.4037V13.6752H59.8002V0H65.0808V31.5433H59.8002V18.6422H44.4037V31.5433H39.123Z" fill="white"/>
<path d="M14.6967 4.83793V31.5433H9.41605V4.83793H0V0H24.1127V4.83793H14.6967Z" fill="white"/>
</svg>
