<svg width="19" height="18" viewBox="0 0 19 18" fill="none" xmlns="http://www.w3.org/2000/svg">
<path d="M13.1219 3.25132L13.0705 6.03335C13.0631 6.41505 13.3054 6.92156 13.6137 7.14912L15.4341 8.52911C16.6013 9.40996 16.4104 10.489 15.0157 10.9295L12.6448 11.6708C12.2484 11.7956 11.83 12.2287 11.7272 12.6325L11.162 14.7905C10.7142 16.4935 9.59845 16.6624 8.67355 15.1649L7.38161 13.0729C7.14672 12.6912 6.58885 12.4049 6.14842 12.4269L3.69673 12.5517C1.94235 12.6398 1.44319 11.6268 2.58831 10.2908L4.04171 8.60252C4.3133 8.28688 4.43809 7.69965 4.3133 7.30326L3.57195 4.93228C3.13886 3.53759 3.91694 2.76685 5.30429 3.22196L7.46974 3.93398C7.83677 4.05143 8.38729 3.97068 8.69559 3.74312L10.9565 2.11354C12.175 1.23268 13.1512 1.74653 13.1219 3.25132Z" stroke="white" stroke-width="1.10107" stroke-linecap="round" stroke-linejoin="round"/>
<path d="M16.5113 16.3619L14.2871 14.1377" stroke="white" stroke-width="1.10107" stroke-linecap="round" stroke-linejoin="round"/>
</svg>
