<svg width="16" height="16" viewBox="0 0 16 16" fill="none" xmlns="http://www.w3.org/2000/svg">
<path d="M3.8269 10.6673C3.90023 10.3407 3.7669 9.87398 3.53357 9.64065L1.91356 8.02065C1.4069 7.51398 1.2069 6.97398 1.35356 6.50732C1.5069 6.04065 1.98023 5.72065 2.6869 5.60065L4.7669 5.25398C5.0669 5.20065 5.43356 4.93398 5.57356 4.66065L6.72023 2.36065C7.05357 1.70065 7.5069 1.33398 8.00023 1.33398C8.49357 1.33398 8.9469 1.70065 9.28023 2.36065L10.4269 4.66065C10.5136 4.83398 10.6936 5.00065 10.8869 5.11398L3.7069 12.294C3.61356 12.3873 3.45356 12.3007 3.48023 12.1673L3.8269 10.6673Z" fill="#F7AF1E"/>
<path d="M12.4662 9.63928C12.2262 9.87928 12.0929 10.3393 12.1729 10.6659L12.6329 12.6726C12.8262 13.5059 12.7062 14.1326 12.2929 14.4326C12.1262 14.5526 11.9262 14.6126 11.6929 14.6126C11.3529 14.6126 10.9529 14.4859 10.5129 14.2259L8.55954 13.0659C8.25288 12.8859 7.74621 12.8859 7.43954 13.0659L5.48621 14.2259C4.74621 14.6593 4.11288 14.7326 3.70621 14.4326C3.55288 14.3193 3.43954 14.1659 3.36621 13.9659L11.4729 5.85928C11.7795 5.55261 12.2129 5.41261 12.6329 5.48595L13.3062 5.59928C14.0129 5.71928 14.4862 6.03928 14.6395 6.50595C14.7862 6.97261 14.5862 7.51261 14.0795 8.01928L12.4662 9.63928Z" fill="#F7AF1E"/>
</svg>
