<svg width="19" height="18" viewBox="0 0 19 18" fill="none" xmlns="http://www.w3.org/2000/svg">
<path d="M3.49991 11.2526L6.82514 14.5778C8.19047 15.9431 10.4073 15.9431 11.78 14.5778L15.0024 11.3553C16.3678 9.99001 16.3678 7.77318 15.0024 6.40051L11.6699 3.08262C10.9725 2.38527 10.0109 2.01091 9.02729 2.06229L5.35705 2.23846C3.88895 2.30453 2.72182 3.47166 2.64841 4.93242L2.47224 8.60266C2.4282 9.59362 2.80256 10.5552 3.49991 11.2526Z" stroke="white" stroke-width="1.10107" stroke-linecap="round" stroke-linejoin="round"/>
<path d="M7.41129 8.8304C8.4248 8.8304 9.24641 8.00878 9.24641 6.99528C9.24641 5.98177 8.4248 5.16016 7.41129 5.16016C6.39778 5.16016 5.57617 5.98177 5.57617 6.99528C5.57617 8.00878 6.39778 8.8304 7.41129 8.8304Z" stroke="white" stroke-width="1.10107" stroke-linecap="round"/>
</svg>
