<svg width="63" height="480" viewBox="0 0 63 480" fill="none" xmlns="http://www.w3.org/2000/svg">
<g opacity="0.1">
<path d="M52.935 26.3395C52.935 21.5041 51.2807 17.6866 47.9723 14.8872C44.6639 12.0029 40.1678 10.5608 34.4841 10.5608L0 10.5608L0 -0.000751495L34.8658 -0.000751495C43.6883 -0.000751495 50.5597 2.41695 55.4799 7.25235C60.4001 12.0878 62.8603 18.4501 62.8603 26.3395C62.8603 34.2288 60.4001 40.5912 55.4799 45.4266C50.5597 50.262 43.6883 52.6797 34.8658 52.6797L0 52.6797L0 42.2454L34.4841 42.2454C40.2526 42.2454 44.7487 40.8033 47.9723 37.919C51.2807 35.1195 52.935 31.2597 52.935 26.3395Z" fill="#4E5075"/>
<path d="M48.0996 127.704L62.224 133.939V145.137L0 117.651L0 106.453L62.224 79.0953V90.2931L48.0996 96.5282L48.0996 127.704ZM38.3015 100.727L12.7248 112.052L38.3015 123.377L38.3015 100.727Z" fill="#4E5075"/>
<path d="M0 182.779L0 172.344H62.224V183.669L16.7967 218.917H62.224V229.479H0L0 218.917L46.4453 182.779H0Z" fill="#4E5075"/>
<path d="M48.0996 305.266L62.224 311.501V322.699L0 295.214L0 284.016L62.224 256.658V267.856L48.0996 274.091L48.0996 305.266ZM38.3015 278.29L12.7248 289.615L38.3015 300.94L38.3015 278.29Z" fill="#4E5075"/>
<path d="M62.224 401.754H0L0 391.192H26.9765L26.9765 360.398H0L0 349.837H62.224V360.398H36.7745L36.7745 391.192H62.224V401.754Z" fill="#4E5075"/>
<path d="M9.54357 450.606H62.224L62.224 461.167H9.54357L9.54357 480H0L0 431.773H9.54357L9.54357 450.606Z" fill="#4E5075"/>
</g>
</svg>
