<svg width="24" height="24" viewBox="0 0 24 24" fill="none" xmlns="http://www.w3.org/2000/svg">
<rect width="24" height="24" rx="12" fill="#F1F1F2"/>
<path opacity="0.4" d="M12.0124 5.30859C10.2657 5.30859 8.8457 6.72859 8.8457 8.47526C8.8457 10.1886 10.1857 11.5753 11.9324 11.6353C11.9857 11.6286 12.039 11.6286 12.079 11.6353C12.0924 11.6353 12.099 11.6353 12.1124 11.6353C12.119 11.6353 12.119 11.6353 12.1257 11.6353C13.8324 11.5753 15.1724 10.1886 15.179 8.47526C15.179 6.72859 13.759 5.30859 12.0124 5.30859Z" fill="#292D32"/>
<path d="M15.3847 13.4378C13.5247 12.1978 10.4914 12.1978 8.61802 13.4378C7.77135 14.0045 7.30469 14.7711 7.30469 15.5911C7.30469 16.4111 7.77135 17.1711 8.61135 17.7311C9.54469 18.3578 10.7714 18.6711 11.998 18.6711C13.2247 18.6711 14.4514 18.3578 15.3847 17.7311C16.2247 17.1645 16.6914 16.4045 16.6914 15.5778C16.6847 14.7578 16.2247 13.9978 15.3847 13.4378Z" fill="#292D32"/>
</svg>
